<svg width="7923" height="1074" viewBox="0 0 7923 1074" fill="none" xmlns="http://www.w3.org/2000/svg">
<path d="M762.943 29.0715V259.064H710.88L627.847 138.228H626.501V259.064H564.114V29.0715H617.076L698.761 149.458H700.557V29.0715H762.943Z" fill="white"/>
<path d="M792.453 259.064V29.0715H958.069V79.3824H854.84V118.912H949.542V169.223H854.84V208.753H957.62V259.064H792.453Z" fill="white"/>
<path d="M1055.88 29.0715L1093.59 96.0029H1095.38L1133.53 29.0715H1203.1L1134.43 144.068L1205.79 259.064H1134.43L1095.38 190.785H1093.59L1054.54 259.064H983.624L1054.09 144.068L985.868 29.0715H1055.88Z" fill="white"/>
<path d="M564.114 507.312V277.319H663.753C681.257 277.319 695.956 279.678 707.85 284.395C719.819 289.111 728.833 295.774 734.892 304.384C741.026 312.994 744.093 323.138 744.093 334.818C744.093 343.278 742.223 350.989 738.482 357.952C734.817 364.914 729.656 370.754 722.998 375.47C716.34 380.112 708.561 383.332 699.659 385.128V387.374C709.533 387.749 718.51 390.257 726.589 394.899C734.667 399.465 741.101 405.792 745.888 413.877C750.676 421.888 753.069 431.321 753.069 442.177C753.069 454.755 749.778 465.948 743.195 475.755C736.687 485.563 727.411 493.274 715.368 498.889C703.325 504.504 688.962 507.312 672.281 507.312H564.114ZM626.501 457.45H655.674C666.147 457.45 674.001 455.504 679.238 451.61C684.474 447.642 687.092 441.803 687.092 434.091C687.092 428.701 685.858 424.134 683.389 420.391C680.921 416.647 677.405 413.803 672.842 411.856C668.354 409.909 662.93 408.936 656.572 408.936H626.501V457.45ZM626.501 370.305H652.084C657.544 370.305 662.369 369.444 666.558 367.722C670.747 366 674.001 363.529 676.32 360.31C678.714 357.016 679.911 353.01 679.911 348.294C679.911 341.181 677.368 335.753 672.281 332.01C667.194 328.192 660.761 326.283 652.981 326.283H626.501V370.305Z" fill="white"/>
<path d="M837.56 277.319V507.312H775.174V277.319H837.56Z" fill="white"/>
<path d="M860.843 327.63V277.319H1060.57V327.63H991.451V507.312H929.962V327.63H860.843Z" fill="white"/>
<path d="M1648.64 507.312V277.319H1700.7L1783.74 398.155H1785.08V277.319H1847.47V507.312H1794.51L1712.82 386.925H1711.03V507.312H1648.64Z" fill="white"/>
<path d="M1619.13 277.319V507.312H1453.51V457.001H1556.74V417.471H1462.04V367.16H1556.74V327.63H1453.96V277.319H1619.13Z" fill="white"/>
<path d="M1355.7 507.312L1318 440.38H1316.2L1278.05 507.312H1208.49L1277.16 392.316L1205.79 277.319H1277.16L1316.2 345.598H1318L1357.05 277.319H1427.96L1357.49 392.316L1425.72 507.312H1355.7Z" fill="white"/>
<path d="M1847.47 29.0715V259.064H1747.83C1730.33 259.064 1715.63 256.706 1703.73 251.989C1691.77 247.272 1682.75 240.609 1676.69 231.999C1670.56 223.39 1667.49 213.245 1667.49 201.566C1667.49 193.106 1669.36 185.395 1673.1 178.432C1676.77 171.469 1681.93 165.63 1688.59 160.913C1695.24 156.271 1703.02 153.052 1711.93 151.255V149.009C1702.05 148.635 1693.07 146.127 1685 141.485C1676.92 136.918 1670.48 130.592 1665.7 122.506C1660.91 114.495 1658.52 105.062 1658.52 94.2061C1658.52 81.6284 1661.81 70.4356 1668.39 60.628C1674.9 50.8204 1684.17 43.1091 1696.22 37.494C1708.26 31.879 1722.62 29.0715 1739.3 29.0715H1847.47ZM1785.08 78.9331H1755.91C1745.44 78.9331 1737.58 80.8797 1732.35 84.7728C1727.11 88.7407 1724.49 94.5805 1724.49 102.292C1724.49 107.682 1725.73 112.249 1728.2 115.992C1730.66 119.736 1734.18 122.581 1738.74 124.527C1743.23 126.474 1748.65 127.447 1755.01 127.447H1785.08V78.9331ZM1785.08 166.079H1759.5C1754.04 166.079 1749.22 166.94 1745.03 168.662C1740.84 170.384 1737.58 172.854 1735.26 176.074C1732.87 179.368 1731.67 183.373 1731.67 188.09C1731.67 195.202 1734.22 200.63 1739.3 204.373C1744.39 208.192 1750.82 210.101 1758.6 210.101H1785.08V166.079Z" fill="white"/>
<path d="M1574.02 259.064V29.0715H1636.41V259.064H1574.02Z" fill="white"/>
<path d="M1550.74 208.753V259.064H1351.01V208.753H1420.13V29.0715H1481.62V208.753H1550.74Z" fill="white"/>
<path d="M2775.22 29.0715V259.064H2723.15L2640.12 138.228H2638.78V259.064H2576.39V29.0715H2629.35L2711.04 149.458H2712.83V29.0715H2775.22Z" fill="white"/>
<path d="M2804.73 259.064V29.0715H2970.34V79.3824H2867.12V118.912H2961.82V169.223H2867.12V208.753H2969.9V259.064H2804.73Z" fill="white"/>
<path d="M3068.16 29.0715L3105.86 96.0029H3107.66L3145.81 29.0715H3215.37L3146.7 144.068L3218.07 259.064H3146.7L3107.66 190.785H3105.86L3066.81 259.064H2995.9L3066.36 144.068L2998.14 29.0715H3068.16Z" fill="white"/>
<path d="M2576.39 507.312V277.319H2676.03C2693.53 277.319 2708.23 279.678 2720.13 284.395C2732.09 289.111 2741.11 295.774 2747.17 304.384C2753.3 312.994 2756.37 323.138 2756.37 334.818C2756.37 343.278 2754.5 350.989 2750.76 357.952C2747.09 364.914 2741.93 370.754 2735.27 375.47C2728.62 380.112 2720.84 383.332 2711.93 385.128V387.374C2721.81 387.749 2730.79 390.257 2738.86 394.899C2746.94 399.465 2753.38 405.792 2758.16 413.877C2762.95 421.888 2765.34 431.321 2765.34 442.177C2765.34 454.755 2762.05 465.948 2755.47 475.755C2748.96 485.563 2739.69 493.274 2727.64 498.889C2715.6 504.504 2701.24 507.312 2684.56 507.312H2576.39ZM2638.78 457.45H2667.95C2678.42 457.45 2686.28 455.504 2691.51 451.61C2696.75 447.642 2699.37 441.803 2699.37 434.091C2699.37 428.701 2698.13 424.134 2695.66 420.391C2693.2 416.647 2689.68 413.803 2685.12 411.856C2680.63 409.909 2675.21 408.936 2668.85 408.936H2638.78V457.45ZM2638.78 370.305H2664.36C2669.82 370.305 2674.64 369.444 2678.83 367.722C2683.02 366 2686.28 363.529 2688.6 360.31C2690.99 357.016 2692.19 353.01 2692.19 348.294C2692.19 341.181 2689.64 335.753 2684.56 332.01C2679.47 328.192 2673.04 326.283 2665.26 326.283H2638.78V370.305Z" fill="white"/>
<path d="M2849.84 277.319V507.312H2787.45V277.319H2849.84Z" fill="white"/>
<path d="M2873.12 327.63V277.319H3072.84V327.63H3003.73V507.312H2942.24V327.63H2873.12Z" fill="white"/>
<path d="M3660.92 507.312V277.319H3712.98L3796.01 398.155H3797.36V277.319H3859.75V507.312H3806.78L3725.1 386.925H3723.3V507.312H3660.92Z" fill="white"/>
<path d="M3631.41 277.319V507.312H3465.79V457.001H3569.02V417.471H3474.32V367.16H3569.02V327.63H3466.24V277.319H3631.41Z" fill="white"/>
<path d="M3367.97 507.312L3330.27 440.38H3328.48L3290.33 507.312H3220.76L3289.43 392.316L3218.07 277.319H3289.43L3328.48 345.598H3330.27L3369.32 277.319H3440.24L3369.77 392.316L3437.99 507.312H3367.97Z" fill="white"/>
<path d="M3859.75 29.0715V259.064H3760.11C3742.6 259.064 3727.9 256.706 3716.01 251.989C3704.04 247.272 3695.03 240.609 3688.97 231.999C3682.83 223.39 3679.77 213.245 3679.77 201.566C3679.77 193.106 3681.64 185.395 3685.38 178.432C3689.04 171.469 3694.2 165.63 3700.86 160.913C3707.52 156.271 3715.3 153.052 3724.2 151.255V149.009C3714.33 148.635 3705.35 146.127 3697.27 141.485C3689.19 136.918 3682.76 130.592 3677.97 122.506C3673.18 114.495 3670.79 105.062 3670.79 94.2061C3670.79 81.6284 3674.08 70.4356 3680.66 60.628C3687.17 50.8204 3696.45 43.1091 3708.49 37.494C3720.54 31.879 3734.9 29.0715 3751.58 29.0715H3859.75ZM3797.36 78.9331H3768.19C3757.71 78.9331 3749.86 80.8797 3744.62 84.7728C3739.39 88.7407 3736.77 94.5805 3736.77 102.292C3736.77 107.682 3738 112.249 3740.47 115.992C3742.94 119.736 3746.45 122.581 3751.02 124.527C3755.51 126.474 3760.93 127.447 3767.29 127.447H3797.36V78.9331ZM3797.36 166.079H3771.78C3766.32 166.079 3761.49 166.94 3757.3 168.662C3753.11 170.384 3749.86 172.854 3747.54 176.074C3745.15 179.368 3743.95 183.373 3743.95 188.09C3743.95 195.202 3746.49 200.63 3751.58 204.373C3756.67 208.192 3763.1 210.101 3770.88 210.101H3797.36V166.079Z" fill="white"/>
<path d="M3586.3 259.064V29.0715H3648.69V259.064H3586.3Z" fill="white"/>
<path d="M3563.02 208.753V259.064H3363.29V208.753H3432.41V29.0715H3493.9V208.753H3563.02Z" fill="white"/>
<path d="M2259.33 68.9844L2241.7 9.04373C2240.94 6.44119 2239.36 4.15504 2237.19 2.52845C2235.03 0.901855 2232.39 0.0225601 2229.68 0.0225601C2226.97 0.0225601 2224.33 0.901855 2222.17 2.52845C2220 4.15504 2218.42 6.44119 2217.66 9.04373L2200.03 68.9844C2188.2 109.191 2166.49 145.788 2136.88 175.426C2107.26 205.064 2070.69 226.795 2030.51 238.632L1970.6 256.274C1958.61 259.782 1958.61 276.772 1970.6 280.305L2030.51 297.947C2070.69 309.78 2107.27 331.51 2136.89 361.148C2166.51 390.786 2188.23 427.385 2200.05 467.595L2217.66 527.535C2221.19 539.513 2238.17 539.513 2241.7 527.535L2259.33 467.569C2271.16 427.365 2292.88 390.771 2322.5 361.138C2352.12 331.504 2388.7 309.778 2428.88 297.947L2488.78 280.305C2500.75 276.797 2500.75 259.807 2488.78 256.249L2428.85 238.607C2388.68 226.773 2352.11 205.045 2322.49 175.411C2292.87 145.778 2271.16 109.186 2259.33 68.9844Z" fill="white"/>
<path d="M2775.22 29.0715V259.064H2723.15L2640.12 138.228H2638.78V259.064H2576.39V29.0715H2629.35L2711.04 149.458H2712.83V29.0715H2775.22Z" fill="white"/>
<path d="M2804.73 259.064V29.0715H2970.34V79.3824H2867.12V118.912H2961.82V169.223H2867.12V208.753H2969.9V259.064H2804.73Z" fill="white"/>
<path d="M3068.16 29.0715L3105.86 96.0029H3107.66L3145.81 29.0715H3215.37L3146.7 144.068L3218.07 259.064H3146.7L3107.66 190.785H3105.86L3066.81 259.064H2995.9L3066.36 144.068L2998.14 29.0715H3068.16Z" fill="white"/>
<path d="M2576.39 507.312V277.319H2676.03C2693.53 277.319 2708.23 279.678 2720.13 284.395C2732.09 289.111 2741.11 295.774 2747.17 304.384C2753.3 312.994 2756.37 323.138 2756.37 334.818C2756.37 343.278 2754.5 350.989 2750.76 357.952C2747.09 364.914 2741.93 370.754 2735.27 375.47C2728.62 380.112 2720.84 383.332 2711.93 385.128V387.374C2721.81 387.749 2730.79 390.257 2738.86 394.899C2746.94 399.465 2753.38 405.792 2758.16 413.877C2762.95 421.888 2765.34 431.321 2765.34 442.177C2765.34 454.755 2762.05 465.948 2755.47 475.755C2748.96 485.563 2739.69 493.274 2727.64 498.889C2715.6 504.504 2701.24 507.312 2684.56 507.312H2576.39ZM2638.78 457.45H2667.95C2678.42 457.45 2686.28 455.504 2691.51 451.61C2696.75 447.642 2699.37 441.803 2699.37 434.091C2699.37 428.701 2698.13 424.134 2695.66 420.391C2693.2 416.647 2689.68 413.803 2685.12 411.856C2680.63 409.909 2675.21 408.936 2668.85 408.936H2638.78V457.45ZM2638.78 370.305H2664.36C2669.82 370.305 2674.64 369.444 2678.83 367.722C2683.02 366 2686.28 363.529 2688.6 360.31C2690.99 357.016 2692.19 353.01 2692.19 348.294C2692.19 341.181 2689.64 335.753 2684.56 332.01C2679.47 328.192 2673.04 326.283 2665.26 326.283H2638.78V370.305Z" fill="white"/>
<path d="M2849.84 277.319V507.312H2787.45V277.319H2849.84Z" fill="white"/>
<path d="M2873.12 327.63V277.319H3072.84V327.63H3003.73V507.312H2942.24V327.63H2873.12Z" fill="white"/>
<path d="M3660.92 507.312V277.319H3712.98L3796.01 398.155H3797.36V277.319H3859.75V507.312H3806.78L3725.1 386.925H3723.3V507.312H3660.92Z" fill="white"/>
<path d="M3631.41 277.319V507.312H3465.79V457.001H3569.02V417.471H3474.32V367.16H3569.02V327.63H3466.24V277.319H3631.41Z" fill="white"/>
<path d="M3367.97 507.312L3330.27 440.38H3328.48L3290.33 507.312H3220.76L3289.43 392.316L3218.07 277.319H3289.43L3328.48 345.598H3330.27L3369.32 277.319H3440.24L3369.77 392.316L3437.99 507.312H3367.97Z" fill="white"/>
<path d="M3859.75 29.0715V259.064H3760.11C3742.6 259.064 3727.9 256.706 3716.01 251.989C3704.04 247.272 3695.03 240.609 3688.97 231.999C3682.83 223.39 3679.77 213.245 3679.77 201.566C3679.77 193.106 3681.64 185.395 3685.38 178.432C3689.04 171.469 3694.2 165.63 3700.86 160.913C3707.52 156.271 3715.3 153.052 3724.2 151.255V149.009C3714.33 148.635 3705.35 146.127 3697.27 141.485C3689.19 136.918 3682.76 130.592 3677.97 122.506C3673.18 114.495 3670.79 105.062 3670.79 94.2061C3670.79 81.6284 3674.08 70.4356 3680.66 60.628C3687.17 50.8204 3696.45 43.1091 3708.49 37.494C3720.54 31.879 3734.9 29.0715 3751.58 29.0715H3859.75ZM3797.36 78.9331H3768.19C3757.71 78.9331 3749.86 80.8797 3744.62 84.7728C3739.39 88.7407 3736.77 94.5805 3736.77 102.292C3736.77 107.682 3738 112.249 3740.47 115.992C3742.94 119.736 3746.45 122.581 3751.02 124.527C3755.51 126.474 3760.93 127.447 3767.29 127.447H3797.36V78.9331ZM3797.36 166.079H3771.78C3766.32 166.079 3761.49 166.94 3757.3 168.662C3753.11 170.384 3749.86 172.854 3747.54 176.074C3745.15 179.368 3743.95 183.373 3743.95 188.09C3743.95 195.202 3746.49 200.63 3751.58 204.373C3756.67 208.192 3763.1 210.101 3770.88 210.101H3797.36V166.079Z" fill="white"/>
<path d="M3586.3 259.064V29.0715H3648.69V259.064H3586.3Z" fill="white"/>
<path d="M3563.02 208.753V259.064H3363.29V208.753H3432.41V29.0715H3493.9V208.753H3563.02Z" fill="white"/>
<path d="M4787.49 29.0715V259.064H4735.43L4652.4 138.228H4651.05V259.064H4588.66V29.0715H4641.62L4723.31 149.458H4725.11V29.0715H4787.49Z" fill="white"/>
<path d="M4817 259.064V29.0715H4982.62V79.3824H4879.39V118.912H4974.09V169.223H4879.39V208.753H4982.17V259.064H4817Z" fill="white"/>
<path d="M5080.44 29.0715L5118.14 96.0029H5119.93L5158.08 29.0715H5227.65L5158.98 144.068L5230.34 259.064H5158.98L5119.93 190.785H5118.14L5079.09 259.064H5008.17L5078.64 144.068L5010.42 29.0715H5080.44Z" fill="white"/>
<path d="M4588.66 507.312V277.319H4688.3C4705.81 277.319 4720.51 279.678 4732.4 284.395C4744.37 289.111 4753.38 295.774 4759.44 304.384C4765.58 312.994 4768.64 323.138 4768.64 334.818C4768.64 343.278 4766.77 350.989 4763.03 357.952C4759.37 364.914 4754.21 370.754 4747.55 375.47C4740.89 380.112 4733.11 383.332 4724.21 385.128V387.374C4734.08 387.749 4743.06 390.257 4751.14 394.899C4759.22 399.465 4765.65 405.792 4770.44 413.877C4775.22 421.888 4777.62 431.321 4777.62 442.177C4777.62 454.755 4774.33 465.948 4767.74 475.755C4761.24 485.563 4751.96 493.274 4739.92 498.889C4727.87 504.504 4713.51 507.312 4696.83 507.312H4588.66ZM4651.05 457.45H4680.22C4690.7 457.45 4698.55 455.504 4703.79 451.61C4709.02 447.642 4711.64 441.803 4711.64 434.091C4711.64 428.701 4710.41 424.134 4707.94 420.391C4705.47 416.647 4701.95 413.803 4697.39 411.856C4692.9 409.909 4687.48 408.936 4681.12 408.936H4651.05V457.45ZM4651.05 370.305H4676.63C4682.09 370.305 4686.92 369.444 4691.11 367.722C4695.3 366 4698.55 363.529 4700.87 360.31C4703.26 357.016 4704.46 353.01 4704.46 348.294C4704.46 341.181 4701.92 335.753 4696.83 332.01C4691.74 328.192 4685.31 326.283 4677.53 326.283H4651.05V370.305Z" fill="white"/>
<path d="M4862.11 277.319V507.312H4799.72V277.319H4862.11Z" fill="white"/>
<path d="M4885.39 327.63V277.319H5085.12V327.63H5016V507.312H4954.51V327.63H4885.39Z" fill="white"/>
<path d="M5673.19 507.312V277.319H5725.25L5808.29 398.155H5809.63V277.319H5872.02V507.312H5819.06L5737.37 386.925H5735.58V507.312H5673.19Z" fill="white"/>
<path d="M5643.68 277.319V507.312H5478.06V457.001H5581.29V417.471H5486.59V367.16H5581.29V327.63H5478.51V277.319H5643.68Z" fill="white"/>
<path d="M5380.25 507.312L5342.55 440.38H5340.75L5302.6 507.312H5233.04L5301.71 392.316L5230.34 277.319H5301.71L5340.75 345.598H5342.55L5381.6 277.319H5452.51L5382.04 392.316L5450.27 507.312H5380.25Z" fill="white"/>
<path d="M5872.02 29.0715V259.064H5772.38C5754.88 259.064 5740.18 256.706 5728.28 251.989C5716.32 247.272 5707.3 240.609 5701.24 231.999C5695.11 223.39 5692.04 213.245 5692.04 201.566C5692.04 193.106 5693.91 185.395 5697.65 178.432C5701.32 171.469 5706.48 165.63 5713.14 160.913C5719.79 156.271 5727.57 153.052 5736.48 151.255V149.009C5726.6 148.635 5717.62 146.127 5709.55 141.485C5701.47 136.918 5695.03 130.592 5690.25 122.506C5685.46 114.495 5683.06 105.062 5683.06 94.2061C5683.06 81.6284 5686.36 70.4356 5692.94 60.628C5699.45 50.8204 5708.72 43.1091 5720.77 37.494C5732.81 31.879 5747.17 29.0715 5763.85 29.0715H5872.02ZM5809.63 78.9331H5780.46C5769.99 78.9331 5762.13 80.8797 5756.9 84.7728C5751.66 88.7407 5749.04 94.5805 5749.04 102.292C5749.04 107.682 5750.28 112.249 5752.75 115.992C5755.21 119.736 5758.73 122.581 5763.29 124.527C5767.78 126.474 5773.2 127.447 5779.56 127.447H5809.63V78.9331ZM5809.63 166.079H5784.05C5778.59 166.079 5773.77 166.94 5769.58 168.662C5765.39 170.384 5762.13 172.854 5759.81 176.074C5757.42 179.368 5756.22 183.373 5756.22 188.09C5756.22 195.202 5758.77 200.63 5763.85 204.373C5768.94 208.192 5775.37 210.101 5783.15 210.101H5809.63V166.079Z" fill="white"/>
<path d="M5598.57 259.064V29.0715H5660.96V259.064H5598.57Z" fill="white"/>
<path d="M5575.29 208.753V259.064H5375.56V208.753H5444.68V29.0715H5506.17V208.753H5575.29Z" fill="white"/>
<path d="M4271.61 68.9844L4253.98 9.04373C4253.22 6.44119 4251.63 4.15504 4249.47 2.52845C4247.3 0.901855 4244.66 0.0225601 4241.95 0.0225601C4239.25 0.0225601 4236.61 0.901855 4234.44 2.52845C4232.27 4.15504 4230.69 6.44119 4229.93 9.04373L4212.3 68.9844C4200.48 109.191 4178.77 145.788 4149.15 175.426C4119.53 205.064 4082.96 226.795 4042.78 238.632L3982.88 256.274C3970.88 259.782 3970.88 276.772 3982.88 280.305L4042.78 297.947C4082.97 309.78 4119.54 331.51 4149.16 361.148C4178.78 390.786 4200.5 427.385 4212.33 467.595L4229.93 527.535C4233.46 539.513 4250.44 539.513 4253.98 527.535L4271.61 467.569C4283.44 427.365 4305.15 390.771 4334.77 361.138C4364.39 331.504 4400.97 309.778 4441.15 297.947L4501.06 280.305C4513.03 276.797 4513.03 259.807 4501.06 256.249L4441.13 238.607C4400.95 226.773 4364.38 205.045 4334.76 175.411C4305.15 145.778 4283.43 109.186 4271.61 68.9844Z" fill="white"/>
<path d="M4795.2 29.0715V259.064H4743.14L4660.1 138.228H4658.76V259.064H4596.37V29.0715H4649.33L4731.02 149.458H4732.81V29.0715H4795.2Z" fill="white"/>
<path d="M4824.71 259.064V29.0715H4990.33V79.3824H4887.1V118.912H4981.8V169.223H4887.1V208.753H4989.88V259.064H4824.71Z" fill="white"/>
<path d="M5088.14 29.0715L5125.84 96.0029H5127.64L5165.79 29.0715H5235.36L5166.69 144.068L5238.05 259.064H5166.69L5127.64 190.785H5125.84L5086.8 259.064H5015.88L5086.35 144.068L5018.13 29.0715H5088.14Z" fill="white"/>
<path d="M4596.37 507.312V277.319H4696.01C4713.51 277.319 4728.21 279.678 4740.11 284.395C4752.08 289.111 4761.09 295.774 4767.15 304.384C4773.28 312.994 4776.35 323.138 4776.35 334.818C4776.35 343.278 4774.48 350.989 4770.74 357.952C4767.07 364.914 4761.91 370.754 4755.25 375.47C4748.6 380.112 4740.82 383.332 4731.92 385.128V387.374C4741.79 387.749 4750.77 390.257 4758.85 394.899C4766.92 399.465 4773.36 405.792 4778.15 413.877C4782.93 421.888 4785.33 431.321 4785.33 442.177C4785.33 454.755 4782.03 465.948 4775.45 475.755C4768.94 485.563 4759.67 493.274 4747.62 498.889C4735.58 504.504 4721.22 507.312 4704.54 507.312H4596.37ZM4658.76 457.45H4687.93C4698.4 457.45 4706.26 455.504 4711.49 451.61C4716.73 447.642 4719.35 441.803 4719.35 434.091C4719.35 428.701 4718.12 424.134 4715.65 420.391C4713.18 416.647 4709.66 413.803 4705.1 411.856C4700.61 409.909 4695.19 408.936 4688.83 408.936H4658.76V457.45ZM4658.76 370.305H4684.34C4689.8 370.305 4694.63 369.444 4698.82 367.722C4703 366 4706.26 363.529 4708.58 360.31C4710.97 357.016 4712.17 353.01 4712.17 348.294C4712.17 341.181 4709.62 335.753 4704.54 332.01C4699.45 328.192 4693.02 326.283 4685.24 326.283H4658.76V370.305Z" fill="white"/>
<path d="M4869.82 277.319V507.312H4807.43V277.319H4869.82Z" fill="white"/>
<path d="M4893.1 327.63V277.319H5092.83V327.63H5023.71V507.312H4962.22V327.63H4893.1Z" fill="white"/>
<path d="M5680.9 507.312V277.319H5732.96L5815.99 398.155H5817.34V277.319H5879.73V507.312H5826.77L5745.08 386.925H5743.28V507.312H5680.9Z" fill="white"/>
<path d="M5651.39 277.319V507.312H5485.77V457.001H5589V417.471H5494.3V367.16H5589V327.63H5486.22V277.319H5651.39Z" fill="white"/>
<path d="M5387.96 507.312L5350.26 440.38H5348.46L5310.31 507.312H5240.74L5309.41 392.316L5238.05 277.319H5309.41L5348.46 345.598H5350.26L5389.3 277.319H5460.22L5389.75 392.316L5457.97 507.312H5387.96Z" fill="white"/>
<path d="M5879.73 29.0715V259.064H5780.09C5762.58 259.064 5747.89 256.706 5735.99 251.989C5724.02 247.272 5715.01 240.609 5708.95 231.999C5702.82 223.39 5699.75 213.245 5699.75 201.566C5699.75 193.106 5701.62 185.395 5705.36 178.432C5709.02 171.469 5714.19 165.63 5720.84 160.913C5727.5 156.271 5735.28 153.052 5744.18 151.255V149.009C5734.31 148.635 5725.33 146.127 5717.25 141.485C5709.17 136.918 5702.74 130.592 5697.95 122.506C5693.17 114.495 5690.77 105.062 5690.77 94.2061C5690.77 81.6284 5694.06 70.4356 5700.65 60.628C5707.15 50.8204 5716.43 43.1091 5728.47 37.494C5740.52 31.879 5754.88 29.0715 5771.56 29.0715H5879.73ZM5817.34 78.9331H5788.17C5777.69 78.9331 5769.84 80.8797 5764.6 84.7728C5759.37 88.7407 5756.75 94.5805 5756.75 102.292C5756.75 107.682 5757.98 112.249 5760.45 115.992C5762.92 119.736 5766.44 122.581 5771 124.527C5775.49 126.474 5780.91 127.447 5787.27 127.447H5817.34V78.9331ZM5817.34 166.079H5791.76C5786.3 166.079 5781.47 166.94 5777.28 168.662C5773.09 170.384 5769.84 172.854 5767.52 176.074C5765.13 179.368 5763.93 183.373 5763.93 188.09C5763.93 195.202 5766.47 200.63 5771.56 204.373C5776.65 208.192 5783.08 210.101 5790.86 210.101H5817.34V166.079Z" fill="white"/>
<path d="M5606.28 259.064V29.0715H5668.67V259.064H5606.28Z" fill="white"/>
<path d="M5583 208.753V259.064H5383.27V208.753H5452.39V29.0715H5513.88V208.753H5583Z" fill="white"/>
<path d="M6807.47 29.0715V259.064H6755.41L6672.38 138.228H6671.03V259.064H6608.65V29.0715H6661.61L6743.29 149.458H6745.09V29.0715H6807.47Z" fill="white"/>
<path d="M6836.99 259.064V29.0715H7002.6V79.3824H6899.37V118.912H6994.07V169.223H6899.37V208.753H7002.15V259.064H6836.99Z" fill="white"/>
<path d="M7100.42 29.0715L7138.12 96.0029H7139.91L7178.06 29.0715H7247.63L7178.96 144.068L7250.32 259.064H7178.96L7139.91 190.785H7138.12L7099.07 259.064H7028.16L7098.62 144.068L7030.4 29.0715H7100.42Z" fill="white"/>
<path d="M6608.65 507.312V277.319H6708.29C6725.79 277.319 6740.49 279.678 6752.38 284.395C6764.35 289.111 6773.36 295.774 6779.42 304.384C6785.56 312.994 6788.62 323.138 6788.62 334.818C6788.62 343.278 6786.75 350.989 6783.01 357.952C6779.35 364.914 6774.19 370.754 6767.53 375.47C6760.87 380.112 6753.09 383.332 6744.19 385.128V387.374C6754.07 387.749 6763.04 390.257 6771.12 394.899C6779.2 399.465 6785.63 405.792 6790.42 413.877C6795.21 421.888 6797.6 431.321 6797.6 442.177C6797.6 454.755 6794.31 465.948 6787.73 475.755C6781.22 485.563 6771.94 493.274 6759.9 498.889C6747.86 504.504 6733.49 507.312 6716.81 507.312H6608.65ZM6671.03 457.45H6700.21C6710.68 457.45 6718.53 455.504 6723.77 451.61C6729.01 447.642 6731.62 441.803 6731.62 434.091C6731.62 428.701 6730.39 424.134 6727.92 420.391C6725.45 416.647 6721.94 413.803 6717.37 411.856C6712.89 409.909 6707.46 408.936 6701.1 408.936H6671.03V457.45ZM6671.03 370.305H6696.62C6702.08 370.305 6706.9 369.444 6711.09 367.722C6715.28 366 6718.53 363.529 6720.85 360.31C6723.25 357.016 6724.44 353.01 6724.44 348.294C6724.44 341.181 6721.9 335.753 6716.81 332.01C6711.73 328.192 6705.29 326.283 6697.51 326.283H6671.03V370.305Z" fill="white"/>
<path d="M6882.09 277.319V507.312H6819.71V277.319H6882.09Z" fill="white"/>
<path d="M6905.37 327.63V277.319H7105.1V327.63H7035.98V507.312H6974.49V327.63H6905.37Z" fill="white"/>
<path d="M7693.17 507.312V277.319H7745.24L7828.27 398.155H7829.62V277.319H7892V507.312H7839.04L7757.35 386.925H7755.56V507.312H7693.17Z" fill="white"/>
<path d="M7663.66 277.319V507.312H7498.05V457.001H7601.28V417.471H7506.57V367.16H7601.28V327.63H7498.5V277.319H7663.66Z" fill="white"/>
<path d="M7400.23 507.312L7362.53 440.38H7360.73L7322.58 507.312H7253.02L7321.69 392.316L7250.32 277.319H7321.69L7360.73 345.598H7362.53L7401.58 277.319H7472.49L7402.03 392.316L7470.25 507.312H7400.23Z" fill="white"/>
<path d="M7892 29.0715V259.064H7792.36C7774.86 259.064 7760.16 256.706 7748.27 251.989C7736.3 247.272 7727.28 240.609 7721.22 231.999C7715.09 223.39 7712.02 213.245 7712.02 201.566C7712.02 193.106 7713.89 185.395 7717.63 178.432C7721.3 171.469 7726.46 165.63 7733.12 160.913C7739.78 156.271 7747.55 153.052 7756.46 151.255V149.009C7746.58 148.635 7737.61 146.127 7729.53 141.485C7721.45 136.918 7715.02 130.592 7710.23 122.506C7705.44 114.495 7703.05 105.062 7703.05 94.2061C7703.05 81.6284 7706.34 70.4356 7712.92 60.628C7719.43 50.8204 7728.7 43.1091 7740.75 37.494C7752.79 31.879 7767.15 29.0715 7783.83 29.0715H7892ZM7829.62 78.9331H7800.44C7789.97 78.9331 7782.11 80.8797 7776.88 84.7728C7771.64 88.7407 7769.02 94.5805 7769.02 102.292C7769.02 107.682 7770.26 112.249 7772.73 115.992C7775.2 119.736 7778.71 122.581 7783.27 124.527C7787.76 126.474 7793.19 127.447 7799.54 127.447H7829.62V78.9331ZM7829.62 166.079H7804.03C7798.57 166.079 7793.75 166.94 7789.56 168.662C7785.37 170.384 7782.11 172.854 7779.8 176.074C7777.4 179.368 7776.21 183.373 7776.21 188.09C7776.21 195.202 7778.75 200.63 7783.83 204.373C7788.92 208.192 7795.36 210.101 7803.13 210.101H7829.62V166.079Z" fill="white"/>
<path d="M7618.56 259.064V29.0715H7680.94V259.064H7618.56Z" fill="white"/>
<path d="M7595.27 208.753V259.064H7395.55V208.753H7464.67V29.0715H7526.15V208.753H7595.27Z" fill="white"/>
<path d="M6291.59 68.9844L6273.96 9.04373C6273.2 6.44119 6271.62 4.15504 6269.45 2.52845C6267.28 0.901855 6264.65 0.0225601 6261.94 0.0225601C6259.23 0.0225601 6256.59 0.901855 6254.42 2.52845C6252.26 4.15504 6250.67 6.44119 6249.92 9.04373L6232.28 68.9844C6220.46 109.191 6198.75 145.788 6169.13 175.426C6139.52 205.064 6102.94 226.795 6062.76 238.632L6002.86 256.274C5990.86 259.782 5990.86 276.772 6002.86 280.305L6062.76 297.947C6102.95 309.78 6139.53 331.51 6169.15 361.148C6198.77 390.786 6220.48 427.385 6232.31 467.595L6249.92 527.535C6253.45 539.513 6270.43 539.513 6273.96 527.535L6291.59 467.569C6303.42 427.365 6325.14 390.771 6354.76 361.138C6384.38 331.504 6420.95 309.778 6461.13 297.947L6521.04 280.305C6533.01 276.797 6533.01 259.807 6521.04 256.249L6461.11 238.607C6420.93 226.773 6384.36 205.045 6354.75 175.411C6325.13 145.778 6303.42 109.186 6291.59 68.9844Z" fill="white"/>
<path d="M6807.47 29.0715V259.064H6755.41L6672.38 138.228H6671.03V259.064H6608.65V29.0715H6661.61L6743.29 149.458H6745.09V29.0715H6807.47Z" fill="white"/>
<path d="M6836.99 259.064V29.0715H7002.6V79.3824H6899.37V118.912H6994.07V169.223H6899.37V208.753H7002.15V259.064H6836.99Z" fill="white"/>
<path d="M7100.42 29.0715L7138.12 96.0029H7139.91L7178.06 29.0715H7247.63L7178.96 144.068L7250.32 259.064H7178.96L7139.91 190.785H7138.12L7099.07 259.064H7028.16L7098.62 144.068L7030.4 29.0715H7100.42Z" fill="white"/>
<path d="M6608.65 507.312V277.319H6708.29C6725.79 277.319 6740.49 279.678 6752.38 284.395C6764.35 289.111 6773.36 295.774 6779.42 304.384C6785.56 312.994 6788.62 323.138 6788.62 334.818C6788.62 343.278 6786.75 350.989 6783.01 357.952C6779.35 364.914 6774.19 370.754 6767.53 375.47C6760.87 380.112 6753.09 383.332 6744.19 385.128V387.374C6754.07 387.749 6763.04 390.257 6771.12 394.899C6779.2 399.465 6785.63 405.792 6790.42 413.877C6795.21 421.888 6797.6 431.321 6797.6 442.177C6797.6 454.755 6794.31 465.948 6787.73 475.755C6781.22 485.563 6771.94 493.274 6759.9 498.889C6747.86 504.504 6733.49 507.312 6716.81 507.312H6608.65ZM6671.03 457.45H6700.21C6710.68 457.45 6718.53 455.504 6723.77 451.61C6729.01 447.642 6731.62 441.803 6731.62 434.091C6731.62 428.701 6730.39 424.134 6727.92 420.391C6725.45 416.647 6721.94 413.803 6717.37 411.856C6712.89 409.909 6707.46 408.936 6701.1 408.936H6671.03V457.45ZM6671.03 370.305H6696.62C6702.08 370.305 6706.9 369.444 6711.09 367.722C6715.28 366 6718.53 363.529 6720.85 360.31C6723.25 357.016 6724.44 353.01 6724.44 348.294C6724.44 341.181 6721.9 335.753 6716.81 332.01C6711.73 328.192 6705.29 326.283 6697.51 326.283H6671.03V370.305Z" fill="white"/>
<path d="M6882.09 277.319V507.312H6819.71V277.319H6882.09Z" fill="white"/>
<path d="M6905.37 327.63V277.319H7105.1V327.63H7035.98V507.312H6974.49V327.63H6905.37Z" fill="white"/>
<path d="M198.831 565.574V795.566H146.767L63.7349 674.73H62.3885V795.566H0.00195312V565.574H52.9632L134.649 685.96H136.444V565.574H198.831Z" fill="white"/>
<path d="M228.341 795.566V565.574H393.957V615.885H290.728V655.415H385.43V705.725H290.728V745.255H393.508V795.566H228.341Z" fill="white"/>
<path d="M491.773 565.574L529.474 632.505H531.269L569.419 565.574H638.987L570.317 680.57L641.68 795.566H570.317L531.269 727.287H529.474L490.426 795.566H419.512L489.977 680.57L421.756 565.574H491.773Z" fill="white"/>
<path d="M0.00195312 1043.81V813.822H99.6409C117.145 813.822 131.844 816.18 143.738 820.897C155.706 825.614 164.72 832.277 170.78 840.887C176.913 849.496 179.98 859.641 179.98 871.32C179.98 879.78 178.11 887.491 174.37 894.454C170.705 901.417 165.543 907.256 158.886 911.973C152.228 916.615 144.449 919.834 135.547 921.631V923.877C145.421 924.251 154.397 926.759 162.476 931.401C170.555 935.968 176.988 942.294 181.776 950.38C186.563 958.391 188.957 967.823 188.957 978.679C188.957 991.257 185.665 1002.45 179.083 1012.26C172.575 1022.06 163.299 1029.78 151.256 1035.39C139.212 1041.01 124.85 1043.81 108.169 1043.81H0.00195312ZM62.3885 993.952H91.562C102.035 993.952 109.889 992.006 115.125 988.112C120.362 984.144 122.98 978.305 122.98 970.594C122.98 965.204 121.745 960.637 119.277 956.893C116.808 953.15 113.293 950.305 108.73 948.358C104.241 946.412 98.818 945.439 92.4597 945.439H62.3885V993.952ZM62.3885 906.807H87.9714C93.4321 906.807 98.257 905.946 102.446 904.224C106.635 902.502 109.889 900.032 112.208 896.812C114.602 893.518 115.799 889.513 115.799 884.796C115.799 877.684 113.255 872.256 108.169 868.512C103.082 864.694 96.6487 862.785 88.8691 862.785H62.3885V906.807Z" fill="white"/>
<path d="M273.448 813.822V1043.81H211.061V813.822H273.448Z" fill="white"/>
<path d="M296.731 864.133V813.822H496.457V864.133H427.338V1043.81H365.85V864.133H296.731Z" fill="white"/>
<path d="M1084.53 1043.81V813.822H1136.59L1219.62 934.658H1220.97V813.822H1283.36V1043.81H1230.4L1148.71 923.428H1146.92V1043.81H1084.53Z" fill="white"/>
<path d="M1055.02 813.822V1043.81H889.403V993.503H992.632V953.974H897.93V903.663H992.632V864.133H889.851V813.822H1055.02Z" fill="white"/>
<path d="M791.587 1043.81L753.886 976.882H752.091L713.941 1043.81H644.373L713.043 928.818L641.68 813.822H713.043L752.091 882.101H753.886L792.934 813.822H863.848L793.382 928.818L861.604 1043.81H791.587Z" fill="white"/>
<path d="M1283.36 565.574V795.566H1183.72C1166.21 795.566 1151.52 793.208 1139.62 788.491C1127.65 783.775 1118.64 777.111 1112.58 768.502C1106.45 759.892 1103.38 749.747 1103.38 738.068C1103.38 729.608 1105.25 721.897 1108.99 714.934C1112.65 707.971 1117.82 702.132 1124.47 697.415C1131.13 692.773 1138.91 689.554 1147.81 687.757V685.511C1137.94 685.137 1128.96 682.629 1120.88 677.987C1112.8 673.42 1106.37 667.094 1101.58 659.008C1096.8 650.997 1094.4 641.564 1094.4 630.708C1094.4 618.131 1097.69 606.938 1104.28 597.13C1110.78 587.323 1120.06 579.612 1132.1 573.996C1144.15 568.381 1158.51 565.574 1175.19 565.574H1283.36ZM1220.97 615.435H1191.8C1181.32 615.435 1173.47 617.382 1168.23 621.275C1163 625.243 1160.38 631.083 1160.38 638.794C1160.38 644.184 1161.61 648.751 1164.08 652.495C1166.55 656.238 1170.07 659.083 1174.63 661.03C1179.12 662.976 1184.54 663.949 1190.9 663.949H1220.97V615.435ZM1220.97 702.581H1195.39C1189.93 702.581 1185.1 703.442 1180.91 705.164C1176.72 706.886 1173.47 709.357 1171.15 712.576C1168.76 715.87 1167.56 719.875 1167.56 724.592C1167.56 731.704 1170.1 737.132 1175.19 740.876C1180.28 744.694 1186.71 746.603 1194.49 746.603H1220.97V702.581Z" fill="white"/>
<path d="M1009.91 795.566V565.574H1072.3V795.566H1009.91Z" fill="white"/>
<path d="M986.629 745.255V795.566H786.902V745.255H856.021V565.574H917.51V745.255H986.629Z" fill="white"/>
<path d="M2211.11 565.574V795.566H2159.04L2076.01 674.73H2074.66V795.566H2012.28V565.574H2065.24L2146.92 685.96H2148.72V565.574H2211.11Z" fill="white"/>
<path d="M2240.62 795.566V565.574H2406.23V615.885H2303V655.415H2397.7V705.725H2303V745.255H2405.78V795.566H2240.62Z" fill="white"/>
<path d="M2504.05 565.574L2541.75 632.505H2543.54L2581.69 565.574H2651.26L2582.59 680.57L2653.95 795.566H2582.59L2543.54 727.287H2541.75L2502.7 795.566H2431.79L2502.25 680.57L2434.03 565.574H2504.05Z" fill="white"/>
<path d="M2012.28 1043.81V813.822H2111.92C2129.42 813.822 2144.12 816.18 2156.01 820.897C2167.98 825.614 2177 832.277 2183.05 840.887C2189.19 849.496 2192.26 859.641 2192.26 871.32C2192.26 879.78 2190.39 887.491 2186.65 894.454C2182.98 901.417 2177.82 907.256 2171.16 911.973C2164.5 916.615 2156.72 919.834 2147.82 921.631V923.877C2157.7 924.251 2166.67 926.759 2174.75 931.401C2182.83 935.968 2189.26 942.294 2194.05 950.38C2198.84 958.391 2201.23 967.823 2201.23 978.679C2201.23 991.257 2197.94 1002.45 2191.36 1012.26C2184.85 1022.06 2175.57 1029.78 2163.53 1035.39C2151.49 1041.01 2137.12 1043.81 2120.44 1043.81H2012.28ZM2074.66 993.952H2103.84C2114.31 993.952 2122.16 992.006 2127.4 988.112C2132.64 984.144 2135.25 978.305 2135.25 970.594C2135.25 965.204 2134.02 960.637 2131.55 956.893C2129.08 953.15 2125.57 950.305 2121 948.358C2116.52 946.412 2111.09 945.439 2104.73 945.439H2074.66V993.952ZM2074.66 906.807H2100.25C2105.71 906.807 2110.53 905.946 2114.72 904.224C2118.91 902.502 2122.16 900.032 2124.48 896.812C2126.88 893.518 2128.07 889.513 2128.07 884.796C2128.07 877.684 2125.53 872.256 2120.44 868.512C2115.36 864.694 2108.92 862.785 2101.14 862.785H2074.66V906.807Z" fill="white"/>
<path d="M2285.72 813.822V1043.81H2223.34V813.822H2285.72Z" fill="white"/>
<path d="M2309.01 864.133V813.822H2508.73V864.133H2439.61V1043.81H2378.12V864.133H2309.01Z" fill="white"/>
<path d="M3096.8 1043.81V813.822H3148.87L3231.9 934.658H3233.25V813.822H3295.63V1043.81H3242.67L3160.99 923.428H3159.19V1043.81H3096.8Z" fill="white"/>
<path d="M3067.29 813.822V1043.81H2901.68V993.503H3004.91V953.974H2910.21V903.663H3004.91V864.133H2902.13V813.822H3067.29Z" fill="white"/>
<path d="M2803.86 1043.81L2766.16 976.882H2764.37L2726.22 1043.81H2656.65L2725.32 928.818L2653.95 813.822H2725.32L2764.37 882.101H2766.16L2805.21 813.822H2876.12L2805.66 928.818L2873.88 1043.81H2803.86Z" fill="white"/>
<path d="M3295.63 565.574V795.566H3195.99C3178.49 795.566 3163.79 793.208 3151.9 788.491C3139.93 783.775 3130.91 777.111 3124.86 768.502C3118.72 759.892 3115.65 749.747 3115.65 738.068C3115.65 729.608 3117.52 721.897 3121.26 714.934C3124.93 707.971 3130.09 702.132 3136.75 697.415C3143.41 692.773 3151.19 689.554 3160.09 687.757V685.511C3150.21 685.137 3141.24 682.629 3133.16 677.987C3125.08 673.42 3118.65 667.094 3113.86 659.008C3109.07 650.997 3106.68 641.564 3106.68 630.708C3106.68 618.131 3109.97 606.938 3116.55 597.13C3123.06 587.323 3132.34 579.611 3144.38 573.996C3156.42 568.381 3170.79 565.574 3187.47 565.574H3295.63ZM3233.25 615.435H3204.07C3193.6 615.435 3185.75 617.382 3180.51 621.275C3175.27 625.243 3172.66 631.083 3172.66 638.794C3172.66 644.184 3173.89 648.751 3176.36 652.495C3178.83 656.238 3182.34 659.083 3186.91 661.03C3191.39 662.976 3196.82 663.949 3203.18 663.949H3233.25V615.435ZM3233.25 702.581H3207.66C3202.2 702.581 3197.38 703.442 3193.19 705.164C3189 706.886 3185.75 709.357 3183.43 712.576C3181.03 715.87 3179.84 719.875 3179.84 724.592C3179.84 731.704 3182.38 737.132 3187.47 740.876C3192.55 744.694 3198.99 746.603 3206.77 746.603H3233.25V702.581Z" fill="white"/>
<path d="M3022.19 795.566V565.574H3084.57V795.566H3022.19Z" fill="white"/>
<path d="M2998.9 745.255V795.566H2799.18V745.255H2868.3V565.574H2929.79V745.255H2998.9Z" fill="white"/>
<path d="M1695.22 605.487L1677.59 545.546C1676.83 542.943 1675.25 540.657 1673.08 539.031C1670.91 537.404 1668.28 536.525 1665.57 536.525C1662.86 536.525 1660.22 537.404 1658.05 539.031C1655.89 540.657 1654.3 542.943 1653.55 545.546L1635.92 605.487C1624.09 645.693 1602.38 682.29 1572.76 711.928C1543.15 741.566 1506.57 763.298 1466.39 775.135L1406.49 792.776C1394.49 796.285 1394.49 813.274 1406.49 816.808L1466.39 834.449C1506.58 846.282 1543.16 868.013 1572.78 897.651C1602.4 927.289 1624.11 963.886 1635.94 1004.1L1653.55 1064.04C1657.08 1076.02 1674.06 1076.02 1677.59 1064.04L1695.22 1004.07C1707.05 963.866 1728.77 927.273 1758.39 897.64C1788.01 868.006 1824.58 846.28 1864.77 834.449L1924.67 816.808C1936.64 813.299 1936.64 796.309 1924.67 792.751L1864.74 775.11C1824.56 763.275 1787.99 741.547 1758.38 711.914C1728.76 682.28 1707.05 645.689 1695.22 605.487Z" fill="white"/>
<path d="M2211.11 565.574V795.566H2159.04L2076.01 674.73H2074.66V795.566H2012.28V565.574H2065.24L2146.92 685.96H2148.72V565.574H2211.11Z" fill="white"/>
<path d="M2240.62 795.566V565.574H2406.23V615.885H2303V655.415H2397.7V705.725H2303V745.255H2405.78V795.566H2240.62Z" fill="white"/>
<path d="M2504.05 565.574L2541.75 632.505H2543.54L2581.69 565.574H2651.26L2582.59 680.57L2653.95 795.566H2582.59L2543.54 727.287H2541.75L2502.7 795.566H2431.79L2502.25 680.57L2434.03 565.574H2504.05Z" fill="white"/>
<path d="M2012.28 1043.81V813.822H2111.92C2129.42 813.822 2144.12 816.18 2156.01 820.897C2167.98 825.614 2177 832.277 2183.05 840.887C2189.19 849.496 2192.26 859.641 2192.26 871.32C2192.26 879.78 2190.39 887.491 2186.65 894.454C2182.98 901.417 2177.82 907.256 2171.16 911.973C2164.5 916.615 2156.72 919.834 2147.82 921.631V923.877C2157.7 924.251 2166.67 926.759 2174.75 931.401C2182.83 935.968 2189.26 942.294 2194.05 950.38C2198.84 958.391 2201.23 967.823 2201.23 978.679C2201.23 991.257 2197.94 1002.45 2191.36 1012.26C2184.85 1022.06 2175.57 1029.78 2163.53 1035.39C2151.49 1041.01 2137.12 1043.81 2120.44 1043.81H2012.28ZM2074.66 993.952H2103.84C2114.31 993.952 2122.16 992.006 2127.4 988.112C2132.64 984.144 2135.25 978.305 2135.25 970.594C2135.25 965.204 2134.02 960.637 2131.55 956.893C2129.08 953.15 2125.57 950.305 2121 948.358C2116.52 946.412 2111.09 945.439 2104.73 945.439H2074.66V993.952ZM2074.66 906.807H2100.25C2105.71 906.807 2110.53 905.946 2114.72 904.224C2118.91 902.502 2122.16 900.032 2124.48 896.812C2126.88 893.518 2128.07 889.513 2128.07 884.796C2128.07 877.684 2125.53 872.256 2120.44 868.512C2115.36 864.694 2108.92 862.785 2101.14 862.785H2074.66V906.807Z" fill="white"/>
<path d="M2285.72 813.822V1043.81H2223.34V813.822H2285.72Z" fill="white"/>
<path d="M2309.01 864.133V813.822H2508.73V864.133H2439.61V1043.81H2378.12V864.133H2309.01Z" fill="white"/>
<path d="M3096.8 1043.81V813.822H3148.87L3231.9 934.658H3233.25V813.822H3295.63V1043.81H3242.67L3160.99 923.428H3159.19V1043.81H3096.8Z" fill="white"/>
<path d="M3067.29 813.822V1043.81H2901.68V993.503H3004.91V953.974H2910.21V903.663H3004.91V864.133H2902.13V813.822H3067.29Z" fill="white"/>
<path d="M2803.86 1043.81L2766.16 976.882H2764.37L2726.22 1043.81H2656.65L2725.32 928.818L2653.95 813.822H2725.32L2764.37 882.101H2766.16L2805.21 813.822H2876.12L2805.66 928.818L2873.88 1043.81H2803.86Z" fill="white"/>
<path d="M3295.63 565.574V795.566H3195.99C3178.49 795.566 3163.79 793.208 3151.9 788.491C3139.93 783.775 3130.91 777.111 3124.86 768.502C3118.72 759.892 3115.65 749.747 3115.65 738.068C3115.65 729.608 3117.52 721.897 3121.26 714.934C3124.93 707.971 3130.09 702.132 3136.75 697.415C3143.41 692.773 3151.19 689.554 3160.09 687.757V685.511C3150.21 685.137 3141.24 682.629 3133.16 677.987C3125.08 673.42 3118.65 667.094 3113.86 659.008C3109.07 650.997 3106.68 641.564 3106.68 630.708C3106.68 618.131 3109.97 606.938 3116.55 597.13C3123.06 587.323 3132.34 579.611 3144.38 573.996C3156.42 568.381 3170.79 565.574 3187.47 565.574H3295.63ZM3233.25 615.435H3204.07C3193.6 615.435 3185.75 617.382 3180.51 621.275C3175.27 625.243 3172.66 631.083 3172.66 638.794C3172.66 644.184 3173.89 648.751 3176.36 652.495C3178.83 656.238 3182.34 659.083 3186.91 661.03C3191.39 662.976 3196.82 663.949 3203.18 663.949H3233.25V615.435ZM3233.25 702.581H3207.66C3202.2 702.581 3197.38 703.442 3193.19 705.164C3189 706.886 3185.75 709.357 3183.43 712.576C3181.03 715.87 3179.84 719.875 3179.84 724.592C3179.84 731.704 3182.38 737.132 3187.47 740.876C3192.55 744.694 3198.99 746.603 3206.77 746.603H3233.25V702.581Z" fill="white"/>
<path d="M3022.19 795.566V565.574H3084.57V795.566H3022.19Z" fill="white"/>
<path d="M2998.9 745.255V795.566H2799.18V745.255H2868.3V565.574H2929.79V745.255H2998.9Z" fill="white"/>
<path d="M4223.38 565.574V795.566H4171.32L4088.28 674.73H4086.94V795.566H4024.55V565.574H4077.51L4159.2 685.96H4160.99V565.574H4223.38Z" fill="white"/>
<path d="M4252.89 795.566V565.574H4418.51V615.885H4315.28V655.415H4409.98V705.725H4315.28V745.255H4418.06V795.566H4252.89Z" fill="white"/>
<path d="M4516.32 565.574L4554.02 632.505H4555.82L4593.97 565.574H4663.54L4594.87 680.57L4666.23 795.566H4594.87L4555.82 727.287H4554.02L4514.98 795.566H4444.06L4514.53 680.57L4446.31 565.574H4516.32Z" fill="white"/>
<path d="M4024.55 1043.81V813.822H4124.19C4141.69 813.822 4156.39 816.18 4168.29 820.897C4180.26 825.614 4189.27 832.277 4195.33 840.887C4201.46 849.496 4204.53 859.641 4204.53 871.32C4204.53 879.78 4202.66 887.491 4198.92 894.454C4195.25 901.417 4190.09 907.256 4183.44 911.973C4176.78 916.615 4169 919.834 4160.1 921.631V923.877C4169.97 924.251 4178.95 926.759 4187.03 931.401C4195.1 935.968 4201.54 942.294 4206.33 950.38C4211.11 958.391 4213.51 967.823 4213.51 978.679C4213.51 991.257 4210.21 1002.45 4203.63 1012.26C4197.12 1022.06 4187.85 1029.78 4175.81 1035.39C4163.76 1041.01 4149.4 1043.81 4132.72 1043.81H4024.55ZM4086.94 993.952H4116.11C4126.58 993.952 4134.44 992.006 4139.67 988.112C4144.91 984.144 4147.53 978.305 4147.53 970.594C4147.53 965.204 4146.29 960.637 4143.83 956.893C4141.36 953.15 4137.84 950.305 4133.28 948.358C4128.79 946.412 4123.37 945.439 4117.01 945.439H4086.94V993.952ZM4086.94 906.807H4112.52C4117.98 906.807 4122.81 905.946 4127 904.224C4131.18 902.502 4134.44 900.032 4136.76 896.812C4139.15 893.518 4140.35 889.513 4140.35 884.796C4140.35 877.684 4137.8 872.256 4132.72 868.512C4127.63 864.694 4121.2 862.785 4113.42 862.785H4086.94V906.807Z" fill="white"/>
<path d="M4298 813.822V1043.81H4235.61V813.822H4298Z" fill="white"/>
<path d="M4321.28 864.133V813.822H4521.01V864.133H4451.89V1043.81H4390.4V864.133H4321.28Z" fill="white"/>
<path d="M5109.08 1043.81V813.822H5161.14L5244.17 934.658H5245.52V813.822H5307.91V1043.81H5254.95L5173.26 923.428H5171.46V1043.81H5109.08Z" fill="white"/>
<path d="M5079.57 813.822V1043.81H4913.95V993.503H5017.18V953.974H4922.48V903.663H5017.18V864.133H4914.4V813.822H5079.57Z" fill="white"/>
<path d="M4816.14 1043.81L4778.44 976.882H4776.64L4738.49 1043.81H4668.92L4737.59 928.818L4666.23 813.822H4737.59L4776.64 882.101H4778.44L4817.48 813.822H4888.4L4817.93 928.818L4886.15 1043.81H4816.14Z" fill="white"/>
<path d="M5307.91 565.574V795.566H5208.27C5190.76 795.566 5176.07 793.208 5164.17 788.491C5152.2 783.775 5143.19 777.111 5137.13 768.502C5131 759.892 5127.93 749.747 5127.93 738.068C5127.93 729.608 5129.8 721.897 5133.54 714.934C5137.2 707.971 5142.37 702.132 5149.02 697.415C5155.68 692.773 5163.46 689.554 5172.36 687.757V685.511C5162.49 685.137 5153.51 682.629 5145.43 677.987C5137.35 673.42 5130.92 667.094 5126.13 659.008C5121.35 650.997 5118.95 641.564 5118.95 630.708C5118.95 618.131 5122.24 606.938 5128.83 597.13C5135.33 587.323 5144.61 579.611 5156.65 573.996C5168.7 568.381 5183.06 565.574 5199.74 565.574H5307.91ZM5245.52 615.435H5216.35C5205.88 615.435 5198.02 617.382 5192.78 621.275C5187.55 625.243 5184.93 631.083 5184.93 638.794C5184.93 644.184 5186.16 648.751 5188.63 652.495C5191.1 656.238 5194.62 659.083 5199.18 661.03C5203.67 662.976 5209.09 663.949 5215.45 663.949H5245.52V615.435ZM5245.52 702.581H5219.94C5214.48 702.581 5209.65 703.442 5205.46 705.164C5201.27 706.886 5198.02 709.357 5195.7 712.576C5193.31 715.87 5192.11 719.875 5192.11 724.592C5192.11 731.704 5194.65 737.132 5199.74 740.876C5204.83 744.694 5211.26 746.603 5219.04 746.603H5245.52V702.581Z" fill="white"/>
<path d="M5034.46 795.566V565.574H5096.85V795.566H5034.46Z" fill="white"/>
<path d="M5011.18 745.255V795.566H4811.45V745.255H4880.57V565.574H4942.06V745.255H5011.18Z" fill="white"/>
<path d="M3707.49 605.487L3689.86 545.546C3689.1 542.943 3687.52 540.657 3685.36 539.031C3683.19 537.404 3680.55 536.525 3677.84 536.525C3675.13 536.525 3672.5 537.404 3670.33 539.031C3668.16 540.657 3666.58 542.943 3665.82 545.546L3648.19 605.487C3636.37 645.693 3614.65 682.29 3585.04 711.928C3555.42 741.566 3518.85 763.298 3478.67 775.135L3418.76 792.776C3406.77 796.285 3406.77 813.274 3418.76 816.808L3478.67 834.449C3518.85 846.282 3555.43 868.013 3585.05 897.651C3614.67 927.289 3636.39 963.886 3648.22 1004.1L3665.82 1064.04C3669.35 1076.02 3686.33 1076.02 3689.86 1064.04L3707.49 1004.07C3719.32 963.866 3741.04 927.273 3770.66 897.64C3800.28 868.006 3836.86 846.28 3877.04 834.449L3936.94 816.808C3948.92 813.299 3948.92 796.309 3936.94 792.751L3877.02 775.11C3836.84 763.275 3800.27 741.547 3770.65 711.914C3741.04 682.28 3719.32 645.689 3707.49 605.487Z" fill="white"/>
<path d="M4231.09 565.574V795.566H4179.02L4095.99 674.73H4094.64V795.566H4032.26V565.574H4085.22L4166.91 685.96H4168.7V565.574H4231.09Z" fill="white"/>
<path d="M4260.6 795.566V565.574H4426.21V615.885H4322.98V655.415H4417.69V705.725H4322.98V745.255H4425.77V795.566H4260.6Z" fill="white"/>
<path d="M4524.03 565.574L4561.73 632.505H4563.53L4601.68 565.574H4671.24L4602.57 680.57L4673.94 795.566H4602.57L4563.53 727.287H4561.73L4522.68 795.566H4451.77L4522.23 680.57L4454.01 565.574H4524.03Z" fill="white"/>
<path d="M4032.26 1043.81V813.822H4131.9C4149.4 813.822 4164.1 816.18 4175.99 820.897C4187.96 825.614 4196.98 832.277 4203.04 840.887C4209.17 849.496 4212.24 859.641 4212.24 871.32C4212.24 879.78 4210.37 887.491 4206.63 894.454C4202.96 901.417 4197.8 907.256 4191.14 911.973C4184.49 916.615 4176.71 919.834 4167.8 921.631V923.877C4177.68 924.251 4186.65 926.759 4194.73 931.401C4202.81 935.968 4209.24 942.294 4214.03 950.38C4218.82 958.391 4221.21 967.823 4221.21 978.679C4221.21 991.257 4217.92 1002.45 4211.34 1012.26C4204.83 1022.06 4195.56 1029.78 4183.51 1035.39C4171.47 1041.01 4157.11 1043.81 4140.43 1043.81H4032.26ZM4094.64 993.952H4123.82C4134.29 993.952 4142.15 992.006 4147.38 988.112C4152.62 984.144 4155.24 978.305 4155.24 970.594C4155.24 965.204 4154 960.637 4151.53 956.893C4149.07 953.15 4145.55 950.305 4140.99 948.358C4136.5 946.412 4131.08 945.439 4124.72 945.439H4094.64V993.952ZM4094.64 906.807H4120.23C4125.69 906.807 4130.51 905.946 4134.7 904.224C4138.89 902.502 4142.15 900.032 4144.46 896.812C4146.86 893.518 4148.06 889.513 4148.06 884.796C4148.06 877.684 4145.51 872.256 4140.43 868.512C4135.34 864.694 4128.91 862.785 4121.13 862.785H4094.64V906.807Z" fill="white"/>
<path d="M4305.7 813.822V1043.81H4243.32V813.822H4305.7Z" fill="white"/>
<path d="M4328.99 864.133V813.822H4528.71V864.133H4459.6V1043.81H4398.11V864.133H4328.99Z" fill="white"/>
<path d="M5116.79 1043.81V813.822H5168.85L5251.88 934.658H5253.23V813.822H5315.61V1043.81H5262.65L5180.97 923.428H5179.17V1043.81H5116.79Z" fill="white"/>
<path d="M5087.28 813.822V1043.81H4921.66V993.503H5024.89V953.974H4930.19V903.663H5024.89V864.133H4922.11V813.822H5087.28Z" fill="white"/>
<path d="M4823.84 1043.81L4786.14 976.882H4784.35L4746.2 1043.81H4676.63L4745.3 928.818L4673.94 813.822H4745.3L4784.35 882.101H4786.14L4825.19 813.822H4896.1L4825.64 928.818L4893.86 1043.81H4823.84Z" fill="white"/>
<path d="M5315.61 565.574V795.566H5215.98C5198.47 795.566 5183.77 793.208 5171.88 788.491C5159.91 783.775 5150.9 777.111 5144.84 768.502C5138.7 759.892 5135.64 749.747 5135.64 738.068C5135.64 729.608 5137.51 721.897 5141.25 714.934C5144.91 707.971 5150.07 702.132 5156.73 697.415C5163.39 692.773 5171.17 689.554 5180.07 687.757V685.511C5170.2 685.137 5161.22 682.629 5153.14 677.987C5145.06 673.42 5138.63 667.094 5133.84 659.008C5129.05 650.997 5126.66 641.564 5126.66 630.708C5126.66 618.131 5129.95 606.938 5136.53 597.13C5143.04 587.323 5152.32 579.611 5164.36 573.996C5176.4 568.381 5190.77 565.574 5207.45 565.574H5315.61ZM5253.23 615.435H5224.05C5213.58 615.435 5205.73 617.382 5200.49 621.275C5195.25 625.243 5192.64 631.083 5192.64 638.794C5192.64 644.184 5193.87 648.751 5196.34 652.495C5198.81 656.238 5202.32 659.083 5206.89 661.03C5211.38 662.976 5216.8 663.949 5223.16 663.949H5253.23V615.435ZM5253.23 702.581H5227.65C5222.18 702.581 5217.36 703.442 5213.17 705.164C5208.98 706.886 5205.73 709.357 5203.41 712.576C5201.01 715.87 5199.82 719.875 5199.82 724.592C5199.82 731.704 5202.36 737.132 5207.45 740.876C5212.53 744.694 5218.97 746.603 5226.75 746.603H5253.23V702.581Z" fill="white"/>
<path d="M5042.17 795.566V565.574H5104.56V795.566H5042.17Z" fill="white"/>
<path d="M5018.89 745.255V795.566H4819.16V745.255H4888.28V565.574H4949.77V745.255H5018.89Z" fill="white"/>
<path d="M6243.36 565.574V795.566H6191.3L6108.27 674.73H6106.92V795.566H6044.53V565.574H6097.49L6179.18 685.96H6180.98V565.574H6243.36Z" fill="white"/>
<path d="M6272.87 795.566V565.574H6438.49V615.885H6335.26V655.415H6429.96V705.725H6335.26V745.255H6438.04V795.566H6272.87Z" fill="white"/>
<path d="M6536.3 565.574L6574.01 632.505H6575.8L6613.95 565.574H6683.52L6614.85 680.57L6686.21 795.566H6614.85L6575.8 727.287H6574.01L6534.96 795.566H6464.04L6534.51 680.57L6466.29 565.574H6536.3Z" fill="white"/>
<path d="M6044.53 1043.81V813.822H6144.17C6161.68 813.822 6176.38 816.18 6188.27 820.897C6200.24 825.614 6209.25 832.277 6215.31 840.887C6221.44 849.496 6224.51 859.641 6224.51 871.32C6224.51 879.78 6222.64 887.491 6218.9 894.454C6215.24 901.417 6210.07 907.256 6203.42 911.973C6196.76 916.615 6188.98 919.834 6180.08 921.631V923.877C6189.95 924.251 6198.93 926.759 6207.01 931.401C6215.09 935.968 6221.52 942.294 6226.31 950.38C6231.09 958.391 6233.49 967.823 6233.49 978.679C6233.49 991.257 6230.2 1002.45 6223.61 1012.26C6217.11 1022.06 6207.83 1029.78 6195.79 1035.39C6183.74 1041.01 6169.38 1043.81 6152.7 1043.81H6044.53ZM6106.92 993.952H6136.09C6146.57 993.952 6154.42 992.006 6159.66 988.112C6164.89 984.144 6167.51 978.305 6167.51 970.594C6167.51 965.204 6166.28 960.637 6163.81 956.893C6161.34 953.15 6157.82 950.305 6153.26 948.358C6148.77 946.412 6143.35 945.439 6136.99 945.439H6106.92V993.952ZM6106.92 906.807H6132.5C6137.96 906.807 6142.79 905.946 6146.98 904.224C6151.17 902.502 6154.42 900.032 6156.74 896.812C6159.13 893.518 6160.33 889.513 6160.33 884.796C6160.33 877.684 6157.79 872.256 6152.7 868.512C6147.61 864.694 6141.18 862.785 6133.4 862.785H6106.92V906.807Z" fill="white"/>
<path d="M6317.98 813.822V1043.81H6255.59V813.822H6317.98Z" fill="white"/>
<path d="M6341.26 864.133V813.822H6540.99V864.133H6471.87V1043.81H6410.38V864.133H6341.26Z" fill="white"/>
<path d="M7129.06 1043.81V813.822H7181.12L7264.16 934.658H7265.5V813.822H7327.89V1043.81H7274.93L7193.24 923.428H7191.45V1043.81H7129.06Z" fill="white"/>
<path d="M7099.55 813.822V1043.81H6933.93V993.503H7037.16V953.974H6942.46V903.663H7037.16V864.133H6934.38V813.822H7099.55Z" fill="white"/>
<path d="M6836.12 1043.81L6798.42 976.882H6796.62L6758.47 1043.81H6688.9L6757.57 928.818L6686.21 813.822H6757.57L6796.62 882.101H6798.42L6837.47 813.822H6908.38L6837.91 928.818L6906.14 1043.81H6836.12Z" fill="white"/>
<path d="M7327.89 565.574V795.566H7228.25C7210.75 795.566 7196.05 793.208 7184.15 788.491C7172.19 783.775 7163.17 777.111 7157.11 768.502C7150.98 759.892 7147.91 749.747 7147.91 738.068C7147.91 729.608 7149.78 721.897 7153.52 714.934C7157.19 707.971 7162.35 702.132 7169.01 697.415C7175.66 692.773 7183.44 689.554 7192.34 687.757V685.511C7182.47 685.137 7173.49 682.629 7165.42 677.987C7157.34 673.42 7150.9 667.094 7146.12 659.008C7141.33 650.997 7138.93 641.564 7138.93 630.708C7138.93 618.131 7142.23 606.938 7148.81 597.13C7155.32 587.323 7164.59 579.611 7176.64 573.996C7188.68 568.381 7203.04 565.574 7219.72 565.574H7327.89ZM7265.5 615.435H7236.33C7225.86 615.435 7218 617.382 7212.77 621.275C7207.53 625.243 7204.91 631.083 7204.91 638.794C7204.91 644.184 7206.15 648.751 7208.61 652.495C7211.08 656.238 7214.6 659.083 7219.16 661.03C7223.65 662.976 7229.07 663.949 7235.43 663.949H7265.5V615.435ZM7265.5 702.581H7239.92C7234.46 702.581 7229.63 703.442 7225.45 705.164C7221.26 706.886 7218 709.357 7215.68 712.576C7213.29 715.87 7212.09 719.875 7212.09 724.592C7212.09 731.704 7214.64 737.132 7219.72 740.876C7224.81 744.694 7231.24 746.603 7239.02 746.603H7265.5V702.581Z" fill="white"/>
<path d="M7054.44 795.566V565.574H7116.83V795.566H7054.44Z" fill="white"/>
<path d="M7031.16 745.255V795.566H6831.43V745.255H6900.55V565.574H6962.04V745.255H7031.16Z" fill="white"/>
<path d="M5727.48 605.487L5709.84 545.546C5709.09 542.943 5707.5 540.657 5705.34 539.031C5703.17 537.404 5700.53 536.525 5697.82 536.525C5695.11 536.525 5692.48 537.404 5690.31 539.031C5688.14 540.657 5686.56 542.943 5685.8 545.546L5668.17 605.487C5656.35 645.693 5634.63 682.29 5605.02 711.928C5575.4 741.566 5538.83 763.298 5498.65 775.135L5438.75 792.776C5426.75 796.285 5426.75 813.274 5438.75 816.808L5498.65 834.449C5538.84 846.282 5575.41 868.013 5605.03 897.651C5634.65 927.289 5656.37 963.886 5668.2 1004.1L5685.8 1064.04C5689.33 1076.02 5706.31 1076.02 5709.84 1064.04L5727.48 1004.07C5739.31 963.866 5761.02 927.273 5790.64 897.64C5820.26 868.006 5856.84 846.28 5897.02 834.449L5956.93 816.808C5968.9 813.299 5968.9 796.309 5956.93 792.751L5897 775.11C5856.82 763.275 5820.25 741.547 5790.63 711.914C5761.02 682.28 5739.3 645.689 5727.48 605.487Z" fill="white"/>
<path d="M6243.36 565.574V795.566H6191.3L6108.27 674.73H6106.92V795.566H6044.53V565.574H6097.49L6179.18 685.96H6180.98V565.574H6243.36Z" fill="white"/>
<path d="M6272.87 795.566V565.574H6438.49V615.885H6335.26V655.415H6429.96V705.725H6335.26V745.255H6438.04V795.566H6272.87Z" fill="white"/>
<path d="M6536.3 565.574L6574.01 632.505H6575.8L6613.95 565.574H6683.52L6614.85 680.57L6686.21 795.566H6614.85L6575.8 727.287H6574.01L6534.96 795.566H6464.04L6534.51 680.57L6466.29 565.574H6536.3Z" fill="white"/>
<path d="M6044.53 1043.81V813.822H6144.17C6161.68 813.822 6176.38 816.18 6188.27 820.897C6200.24 825.614 6209.25 832.277 6215.31 840.887C6221.44 849.496 6224.51 859.641 6224.51 871.32C6224.51 879.78 6222.64 887.491 6218.9 894.454C6215.24 901.417 6210.07 907.256 6203.42 911.973C6196.76 916.615 6188.98 919.834 6180.08 921.631V923.877C6189.95 924.251 6198.93 926.759 6207.01 931.401C6215.09 935.968 6221.52 942.294 6226.31 950.38C6231.09 958.391 6233.49 967.823 6233.49 978.679C6233.49 991.257 6230.2 1002.45 6223.61 1012.26C6217.11 1022.06 6207.83 1029.78 6195.79 1035.39C6183.74 1041.01 6169.38 1043.81 6152.7 1043.81H6044.53ZM6106.92 993.952H6136.09C6146.57 993.952 6154.42 992.006 6159.66 988.112C6164.89 984.144 6167.51 978.305 6167.51 970.594C6167.51 965.204 6166.28 960.637 6163.81 956.893C6161.34 953.15 6157.82 950.305 6153.26 948.358C6148.77 946.412 6143.35 945.439 6136.99 945.439H6106.92V993.952ZM6106.92 906.807H6132.5C6137.96 906.807 6142.79 905.946 6146.98 904.224C6151.17 902.502 6154.42 900.032 6156.74 896.812C6159.13 893.518 6160.33 889.513 6160.33 884.796C6160.33 877.684 6157.79 872.256 6152.7 868.512C6147.61 864.694 6141.18 862.785 6133.4 862.785H6106.92V906.807Z" fill="white"/>
<path d="M6317.98 813.822V1043.81H6255.59V813.822H6317.98Z" fill="white"/>
<path d="M6341.26 864.133V813.822H6540.99V864.133H6471.87V1043.81H6410.38V864.133H6341.26Z" fill="white"/>
<path d="M301.818 68.9795L284.187 9.03876C283.429 6.43621 281.847 4.15006 279.68 2.52347C277.512 0.896875 274.876 0.0175781 272.166 0.0175781C269.457 0.0175781 266.821 0.896875 264.653 2.52347C262.486 4.15006 260.904 6.43621 260.145 9.03876L242.515 68.9795C230.691 109.186 208.977 145.783 179.361 175.421C149.746 205.059 113.174 226.791 72.9933 238.628L13.0886 256.269C1.09268 259.777 1.09268 276.767 13.0886 280.301L72.9933 297.942C113.179 309.775 149.756 331.506 179.376 361.144C208.996 390.782 230.713 427.381 242.54 467.59L260.145 527.531C263.677 539.509 280.656 539.509 284.187 527.531L301.818 467.565C313.648 427.36 335.367 390.766 364.987 361.133C394.607 331.5 431.182 309.773 471.365 297.942L531.269 280.301C543.24 276.792 543.24 259.802 531.269 256.244L471.34 238.603C431.162 226.768 394.592 205.04 364.976 175.407C335.361 145.773 313.646 109.181 301.818 68.9795Z" fill="white"/>
<path d="M7684.28 596.497L7666.65 536.556C7665.89 533.954 7664.31 531.668 7662.14 530.041C7659.97 528.415 7657.33 527.535 7654.62 527.535C7651.92 527.535 7649.28 528.415 7647.11 530.041C7644.94 531.668 7643.36 533.954 7642.6 536.556L7624.97 596.497C7613.15 636.704 7591.44 673.301 7561.82 702.939C7532.2 732.576 7495.63 754.308 7455.45 766.145L7395.55 783.786C7383.55 787.295 7383.55 804.285 7395.55 807.818L7455.45 825.459C7495.64 837.293 7532.21 859.023 7561.83 888.661C7591.45 918.299 7613.17 954.898 7625 995.107L7642.6 1055.05C7646.14 1067.03 7663.11 1067.03 7666.65 1055.05L7684.28 995.082C7696.11 954.877 7717.83 918.284 7747.45 888.65C7777.07 859.017 7813.64 837.29 7853.82 825.459L7913.73 807.818C7925.7 804.31 7925.7 787.32 7913.73 783.761L7853.8 766.12C7813.62 754.285 7777.05 732.557 7747.44 702.924C7717.82 673.291 7696.1 636.699 7684.28 596.497Z" fill="white"/>
</svg>
