<svg width="359" height="359" viewBox="0 0 359 359" fill="none" xmlns="http://www.w3.org/2000/svg">
<path d="M170.458 306H173.549L183.949 323.241V306H186.557V327.826H183.554L173.065 310.351V327.826H170.458V306Z" fill="white"/>
<path d="M144.896 301.355L156.949 304.106L152.093 325.385L140.168 322.663L140.384 320.399L149.695 322.524L151.257 315.683L143.302 313.868L143.83 311.554L151.785 313.37L153.552 305.629L144.112 303.475L144.896 301.355Z" fill="white"/>
<path d="M117.421 290.009L120.351 291.42L120.877 301.266L128.89 295.532L131.807 296.936L121.276 304.319L122.059 316.468L119.195 315.088L118.691 305.806L111.092 311.186L108.228 309.807L118.201 302.838L117.421 290.009Z" fill="white"/>
<path d="M90.3427 278.237C90.734 277.762 91.091 277.353 91.4138 277.011C91.7229 276.671 92.0358 276.364 92.3526 276.092C92.6694 275.82 92.9505 275.601 93.1958 275.435C93.4411 275.268 93.7192 275.146 94.0302 275.07C94.3275 274.994 94.5936 274.95 94.8284 274.938C95.0572 274.933 95.3409 274.984 95.6797 275.092C96.0047 275.201 96.3038 275.328 96.577 275.471C96.8503 275.613 97.1976 275.828 97.6189 276.114C98.0327 276.394 98.4258 276.676 98.7984 276.961C99.1634 277.24 99.6207 277.598 100.17 278.036L106.286 282.913L92.6777 299.978L86.1955 294.808C85.3328 294.12 84.6554 293.505 84.1635 292.963C83.6578 292.423 83.2787 291.864 83.0262 291.288C82.766 290.706 82.7041 290.126 82.8405 289.547C82.9769 288.969 83.3 288.352 83.8099 287.697L84.7849 286.451C85.1989 285.932 85.5559 285.524 85.8559 285.226C86.1559 284.928 86.4621 284.685 86.7744 284.497C87.0792 284.303 87.3878 284.205 87.7005 284.205C88.0132 284.204 88.3495 284.26 88.7096 284.373C89.056 284.487 89.4734 284.676 89.9619 284.94C89.4853 284.473 89.13 284.002 88.8959 283.528C88.6618 283.054 88.5353 282.61 88.5164 282.195C88.4898 281.774 88.5646 281.328 88.7408 280.856C88.917 280.385 89.1291 279.954 89.3771 279.565C89.6251 279.176 89.947 278.733 90.3427 278.237ZM86.6597 288.752C86.6476 288.767 86.6293 288.79 86.6049 288.821C86.3492 289.142 86.1696 289.367 86.0661 289.497C85.9565 289.634 85.8485 289.816 85.7421 290.044C85.6219 290.273 85.5604 290.436 85.5575 290.534C85.547 290.625 85.5785 290.782 85.6521 291.003C85.7119 291.225 85.8082 291.402 85.9411 291.533C86.0679 291.671 86.2757 291.881 86.5643 292.161C86.8393 292.443 87.1295 292.705 87.4349 292.949C87.7403 293.193 88.1564 293.524 88.6832 293.944L91.764 296.401L96.1296 290.927L93.8276 289.091C92.8275 288.294 91.9968 287.675 91.3358 287.235C90.6686 286.803 90.1313 286.537 89.724 286.437C89.3029 286.338 88.9826 286.333 88.7631 286.42C88.536 286.501 88.3159 286.675 88.1028 286.943L86.6597 288.752ZM92.172 280.595C91.4627 281.516 91.0404 282.116 90.9051 282.395C90.6771 282.9 90.7122 283.397 91.0103 283.884C91.3712 284.497 92.4495 285.525 94.2453 286.97C94.3675 287.067 94.5011 287.174 94.6462 287.289L97.3261 289.427L102.605 282.807L98.2301 279.318C97.3445 278.612 96.6185 278.152 96.0524 277.937C95.4801 277.731 95.0028 277.719 94.6202 277.901C94.2377 278.083 93.8189 278.467 93.3638 279.053L92.172 280.595Z" fill="white"/>
<path d="M79.6758 257.215L81.5299 259.54L64.4655 273.148L62.6115 270.823L79.6758 257.215Z" fill="white"/>
<path d="M44.8063 236.463L47.2787 241.597L64.9109 233.106L66.2011 235.785L48.5689 244.276L50.9904 249.305L48.958 250.284L42.7739 237.442L44.8063 236.463Z" fill="white"/>
<path d="M47.1519 205.917C47.2041 206.146 47.1409 206.396 46.9624 206.667C46.7817 206.928 46.5385 207.179 46.2326 207.419C45.9173 207.661 45.5211 207.922 45.0439 208.201C44.5667 208.481 44.1127 208.729 43.6817 208.948C43.2486 209.157 42.7712 209.391 42.2494 209.651C42.0603 209.744 41.9204 209.811 41.8295 209.852C42.213 209.864 42.6474 209.88 43.1327 209.9C43.6157 209.91 44.0088 209.92 44.3118 209.931C44.6053 209.944 44.9343 209.959 45.2987 209.976C45.661 209.984 45.9545 209.997 46.1792 210.016C46.3943 210.037 46.627 210.069 46.8773 210.112C47.1158 210.148 47.3067 210.194 47.4501 210.252C47.5934 210.309 47.7341 210.377 47.8723 210.456C48.0104 210.534 48.1174 210.63 48.1933 210.743C48.2575 210.849 48.3058 210.973 48.3384 211.116C48.3971 211.373 48.3452 211.65 48.1827 211.947C48.0107 212.247 47.7962 212.426 47.5391 212.485C47.3201 212.535 47.0654 212.538 46.7749 212.494C46.4823 212.441 46.2112 212.372 45.9618 212.289C45.7124 212.206 45.3567 212.052 44.8946 211.826C44.4304 211.592 44.0671 211.404 43.8046 211.264C43.54 211.114 43.0974 210.864 42.4768 210.515C42.1559 210.338 41.9147 210.203 41.7531 210.109C41.8195 210.224 42.0035 210.548 42.3053 211.08C42.607 211.612 42.8093 211.972 42.9121 212.159C43.0148 212.346 43.1642 212.627 43.3602 213.003C43.5562 213.379 43.7015 213.686 43.7961 213.925C43.8906 214.164 43.9618 214.388 44.0096 214.598C44.2291 215.559 43.9057 216.139 43.0393 216.337C42.1824 216.532 41.6464 216.159 41.4313 215.216C41.3552 214.883 41.326 214.404 41.3436 213.779C41.3495 213.146 41.3856 212.427 41.452 211.621C41.5066 210.807 41.5356 210.319 41.5389 210.158C39.458 213.198 38.1557 214.777 37.632 214.896C37.2512 214.983 36.912 214.946 36.6145 214.783C36.3148 214.611 36.1215 214.335 36.0346 213.954C35.9868 213.744 36.0125 213.528 36.1119 213.305C36.2017 213.084 36.3995 212.854 36.7053 212.614C36.9995 212.366 37.2668 212.155 37.5073 211.98C37.7478 211.805 38.1363 211.576 38.6727 211.293C39.2092 211.011 39.6031 210.805 39.8545 210.678C40.1059 210.55 40.5437 210.34 41.1681 210.048C41.204 210.029 41.2362 210.017 41.2648 210.011C41.2912 209.994 41.3176 209.978 41.344 209.962C40.9604 209.95 40.4997 209.95 39.9616 209.962C39.9521 209.965 39.8632 209.97 39.6948 209.978C39.5147 209.979 39.3204 209.984 39.1118 209.991C38.8936 210.001 38.633 210 38.33 209.989C38.027 209.978 37.7324 209.96 37.4463 209.935C37.1506 209.913 36.8565 209.875 36.5638 209.821C36.2595 209.761 35.9921 209.686 35.7618 209.599C35.5314 209.511 35.3348 209.396 35.1719 209.253C34.9973 209.102 34.8894 208.936 34.8481 208.756C34.7807 208.46 34.8352 208.172 35.0116 207.892C35.1857 207.602 35.4394 207.419 35.7727 207.342C36.2011 207.245 36.8055 207.347 37.5857 207.65C38.3565 207.955 39.6384 208.634 41.4314 209.687C41.2163 209.315 40.9269 208.815 40.5632 208.187C40.1973 207.55 39.956 207.129 39.8394 206.925C39.7206 206.712 39.5946 206.445 39.4614 206.125C39.3187 205.807 39.2158 205.51 39.1528 205.234C38.9377 204.291 39.2586 203.722 40.1154 203.527C40.9818 203.329 41.5269 203.72 41.7507 204.701C41.8116 204.967 41.8477 205.345 41.8589 205.833C41.8585 206.314 41.8498 206.737 41.8328 207.101C41.8137 207.456 41.7788 207.94 41.7283 208.552C41.6756 209.155 41.6481 209.517 41.6456 209.638C43.7741 206.588 45.0812 205.008 45.5668 204.897C45.9476 204.81 46.2853 204.863 46.5798 205.056C46.8721 205.24 47.0628 205.527 47.1519 205.917Z" fill="white"/>
<path d="M53 170.458V173.549L35.7588 183.949L53 183.949V186.557L31.1738 186.557V183.554L48.6494 173.065H31.1738V170.458L53 170.458Z" fill="white"/>
<path d="M57.6449 144.896L54.8939 156.949L33.6149 152.093L36.3367 140.168L38.6012 140.384L36.4759 149.695L43.3166 151.257L45.1322 143.302L47.4457 143.83L45.6301 151.785L53.3705 153.552L55.5251 144.112L57.6449 144.896Z" fill="white"/>
<path d="M68.9913 117.421L67.5803 120.351L57.7344 120.877L63.4682 128.89L62.0636 131.807L54.6807 121.276L42.5324 122.059L43.9115 119.195L53.1944 118.691L47.814 111.092L49.1931 108.228L56.1616 118.201L68.9913 117.421Z" fill="white"/>
<path d="M80.7632 90.3428C81.2381 90.734 81.6466 91.091 81.9888 91.4138C82.3293 91.7229 82.6356 92.0358 82.9076 92.3526C83.1795 92.6694 83.3988 92.9505 83.5654 93.1958C83.7321 93.4411 83.8537 93.7192 83.9305 94.0302C84.0057 94.3275 84.0495 94.5936 84.0621 94.8284C84.067 95.0572 84.0156 95.341 83.9079 95.6797C83.7985 96.0047 83.6724 96.3038 83.5295 96.5771C83.3865 96.8503 83.172 97.1976 82.886 97.619C82.606 98.0327 82.3237 98.4259 82.039 98.7984C81.7605 99.1634 81.402 99.6207 80.9636 100.17L76.0865 106.286L59.0222 92.6777L64.1915 86.1956C64.8795 85.3328 65.4947 84.6554 66.0368 84.1635C66.5775 83.6579 67.1359 83.2788 67.712 83.0262C68.2942 82.7661 68.8744 82.7042 69.4526 82.8405C70.0309 82.9769 70.6475 83.3 71.3026 83.8099L72.5486 84.7849C73.0678 85.1989 73.4763 85.5559 73.7742 85.8559C74.072 86.1559 74.315 86.4621 74.5031 86.7745C74.6973 87.0792 74.7946 87.3879 74.7951 87.7005C74.7955 88.0132 74.7396 88.3496 74.6273 88.7097C74.5135 89.056 74.3242 89.4735 74.0596 89.9619C74.5271 89.4853 74.9978 89.13 75.4718 88.8959C75.9457 88.6619 76.3901 88.5354 76.8049 88.5164C77.2258 88.4898 77.672 88.5646 78.1436 88.7408C78.6151 88.917 79.0455 89.1291 79.4348 89.3771C79.8241 89.6251 80.2669 89.947 80.7632 90.3428ZM70.2478 86.6598C70.2325 86.6476 70.2096 86.6293 70.1791 86.605C69.8584 86.3492 69.6332 86.1696 69.5034 86.0661C69.3659 85.9565 69.1835 85.8485 68.9561 85.7421C68.7271 85.622 68.5639 85.5605 68.4662 85.5576C68.3747 85.547 68.2184 85.5785 67.9974 85.6521C67.7748 85.7119 67.5981 85.8083 67.4671 85.9411C67.3285 86.0679 67.1191 86.2757 66.839 86.5644C66.5572 86.8393 66.2946 87.1295 66.051 87.4349C65.8075 87.7403 65.4757 88.1564 65.0555 88.6832L62.5987 91.764L68.0731 96.1296L69.9088 93.8277C70.7065 92.8275 71.3251 91.9968 71.7649 91.3358C72.197 90.6686 72.4631 90.1314 72.5631 89.724C72.6616 89.3029 72.6672 88.9826 72.5799 88.7631C72.4987 88.536 72.3245 88.3159 72.0573 88.1028L70.2478 86.6598ZM78.4051 92.172C77.4843 91.4627 76.8843 91.0404 76.605 90.9051C76.0998 90.6771 75.6035 90.7122 75.1159 91.0103C74.5033 91.3712 73.4748 92.4495 72.0302 94.2453C71.9327 94.3675 71.8262 94.5011 71.7105 94.6462L69.5734 97.3261L76.193 102.605L79.6818 98.2301C80.3881 97.3445 80.8484 96.6186 81.0625 96.0524C81.2691 95.4802 81.2813 95.0028 81.0992 94.6203C80.9171 94.2377 80.5329 93.8189 79.9466 93.3638L78.4051 92.172Z" fill="white"/>
<path d="M101.785 79.6759L99.4604 81.5299L85.852 64.4655L88.1769 62.6115L101.785 79.6759Z" fill="white"/>
<path d="M122.537 44.8063L117.403 47.2787L125.894 64.9109L123.215 66.2011L114.724 48.5689L109.695 50.9904L108.716 48.958L121.558 42.7739L122.537 44.8063Z" fill="white"/>
<path d="M153.083 47.1519C152.854 47.2041 152.604 47.1409 152.333 46.9624C152.072 46.7817 151.821 46.5385 151.581 46.2326C151.339 45.9173 151.078 45.5211 150.799 45.0439C150.519 44.5667 150.271 44.1127 150.052 43.6817C149.843 43.2486 149.609 42.7712 149.349 42.2494C149.256 42.0603 149.189 41.9204 149.148 41.8295C149.136 42.213 149.12 42.6474 149.1 43.1327C149.09 43.6157 149.08 44.0088 149.069 44.3118C149.056 44.6053 149.041 44.9343 149.024 45.2987C149.016 45.661 149.003 45.9545 148.984 46.1792C148.963 46.3943 148.931 46.627 148.888 46.8773C148.852 47.1158 148.806 47.3067 148.748 47.4501C148.691 47.5934 148.623 47.7341 148.544 47.8723C148.466 48.0104 148.37 48.1174 148.257 48.1933C148.151 48.2575 148.027 48.3058 147.884 48.3384C147.627 48.3971 147.35 48.3452 147.053 48.1827C146.753 48.0107 146.574 47.7962 146.515 47.5391C146.465 47.3201 146.462 47.0654 146.506 46.7749C146.559 46.4823 146.628 46.2112 146.711 45.9618C146.794 45.7124 146.948 45.3567 147.174 44.8946C147.408 44.4304 147.596 44.0671 147.736 43.8046C147.886 43.54 148.136 43.0974 148.485 42.4768C148.662 42.1559 148.797 41.9147 148.891 41.7531C148.776 41.8195 148.452 42.0035 147.92 42.3053C147.388 42.607 147.028 42.8093 146.841 42.9121C146.654 43.0148 146.373 43.1642 145.997 43.3602C145.621 43.5562 145.314 43.7015 145.075 43.7961C144.836 43.8906 144.612 43.9618 144.402 44.0096C143.441 44.2291 142.861 43.9057 142.663 43.0393C142.468 42.1824 142.841 41.6464 143.784 41.4313C144.117 41.3552 144.596 41.326 145.221 41.3436C145.854 41.3495 146.573 41.3856 147.379 41.452C148.193 41.5066 148.681 41.5356 148.842 41.5389C145.802 39.458 144.223 38.1557 144.104 37.632C144.017 37.2512 144.054 36.912 144.217 36.6145C144.389 36.3148 144.665 36.1215 145.046 36.0346C145.256 35.9868 145.472 36.0125 145.695 36.1119C145.916 36.2017 146.146 36.3995 146.386 36.7053C146.634 36.9995 146.845 37.2668 147.02 37.5073C147.195 37.7478 147.424 38.1363 147.707 38.6727C147.989 39.2092 148.195 39.6031 148.322 39.8545C148.45 40.1059 148.66 40.5437 148.952 41.1681C148.971 41.204 148.983 41.2362 148.989 41.2648C149.006 41.2912 149.022 41.3176 149.038 41.344C149.05 40.9604 149.05 40.4997 149.038 39.9616C149.035 39.9521 149.03 39.8632 149.022 39.6948C149.021 39.5147 149.016 39.3204 149.009 39.1118C148.999 38.8936 149 38.633 149.011 38.33C149.022 38.027 149.04 37.7324 149.065 37.4463C149.087 37.1506 149.125 36.8565 149.179 36.5638C149.239 36.2595 149.314 35.9921 149.401 35.7618C149.489 35.5314 149.604 35.3348 149.747 35.1719C149.898 34.9973 150.064 34.8894 150.244 34.8481C150.54 34.7807 150.828 34.8352 151.108 35.0116C151.398 35.1857 151.581 35.4394 151.658 35.7727C151.755 36.2011 151.653 36.8055 151.35 37.5857C151.045 38.3565 150.366 39.6384 149.313 41.4314C149.685 41.2163 150.185 40.9269 150.813 40.5632C151.45 40.1973 151.871 39.956 152.075 39.8394C152.288 39.7206 152.555 39.5946 152.875 39.4614C153.193 39.3187 153.49 39.2158 153.766 39.1528C154.709 38.9377 155.278 39.2586 155.473 40.1154C155.671 40.9818 155.28 41.5269 154.299 41.7507C154.033 41.8116 153.655 41.8477 153.167 41.8589C152.686 41.8585 152.263 41.8498 151.899 41.8328C151.544 41.8137 151.06 41.7788 150.448 41.7283C149.845 41.6756 149.483 41.6481 149.362 41.6456C152.412 43.7741 153.992 45.0812 154.103 45.5668C154.19 45.9476 154.137 46.2853 153.944 46.5798C153.76 46.8721 153.473 47.0628 153.083 47.1519Z" fill="white"/>
<path d="M188.542 53H185.451L175.051 35.7588V53L172.443 53V31.1738H175.446L185.935 48.6494V31.1738H188.542V53Z" fill="white"/>
<path d="M214.104 57.645L202.051 54.8939L206.907 33.6149L218.832 36.3367L218.616 38.6012L209.305 36.4759L207.743 43.3166L215.698 45.1322L215.17 47.4457L207.215 45.6302L205.448 53.3706L214.888 55.5251L214.104 57.645Z" fill="white"/>
<path d="M241.579 68.9913L238.649 67.5803L238.123 57.7344L230.11 63.4682L227.194 62.0636L237.724 54.6807L236.941 42.5323L239.805 43.9115L240.309 53.1944L247.908 47.8139L250.772 49.1931L240.799 56.1616L241.579 68.9913Z" fill="white"/>
<path d="M268.657 80.7632C268.266 81.2381 267.909 81.6466 267.586 81.9887C267.277 82.3293 266.964 82.6356 266.647 82.9076C266.331 83.1795 266.049 83.3988 265.804 83.5654C265.559 83.7321 265.281 83.8537 264.97 83.9305C264.672 84.0057 264.406 84.0495 264.172 84.0621C263.943 84.067 263.659 84.0156 263.32 83.9078C262.995 83.7985 262.696 83.6724 262.423 83.5295C262.15 83.3865 261.802 83.172 261.381 82.8859C260.967 82.606 260.574 82.3237 260.202 82.039C259.837 81.7605 259.379 81.402 258.83 80.9636L252.714 76.0865L266.322 59.0221L272.804 64.1915C273.667 64.8795 274.345 65.4946 274.836 66.0368C275.342 66.5775 275.721 67.1359 275.974 67.712C276.234 68.2942 276.296 68.8744 276.159 69.4526C276.023 70.0309 275.7 70.6475 275.19 71.3026L274.215 72.5486C273.801 73.0678 273.444 73.4763 273.144 73.7742C272.844 74.072 272.538 74.315 272.226 74.5031C271.921 74.6972 271.612 74.7946 271.299 74.7951C270.987 74.7955 270.65 74.7396 270.29 74.6273C269.944 74.5135 269.527 74.3242 269.038 74.0596C269.515 74.5271 269.87 74.9978 270.104 75.4718C270.338 75.9457 270.465 76.3901 270.484 76.8049C270.51 77.2258 270.435 77.672 270.259 78.1436C270.083 78.6151 269.871 79.0455 269.623 79.4348C269.375 79.8241 269.053 80.2669 268.657 80.7632ZM272.34 70.2478C272.352 70.2325 272.371 70.2096 272.395 70.1791C272.651 69.8584 272.83 69.6332 272.934 69.5034C273.043 69.3659 273.151 69.1835 273.258 68.9561C273.378 68.7271 273.44 68.5639 273.442 68.4662C273.453 68.3747 273.421 68.2184 273.348 67.9974C273.288 67.7748 273.192 67.5981 273.059 67.4671C272.932 67.3285 272.724 67.1191 272.436 66.8389C272.161 66.5572 271.87 66.2946 271.565 66.051C271.26 65.8075 270.844 65.4756 270.317 65.0555L267.236 62.5987L262.87 68.0731L265.172 69.9088C266.173 70.7064 267.003 71.3251 267.664 71.7649C268.331 72.197 268.869 72.4631 269.276 72.5631C269.697 72.6616 270.017 72.6672 270.237 72.5799C270.464 72.4987 270.684 72.3245 270.897 72.0573L272.34 70.2478ZM266.828 78.4051C267.537 77.4843 267.96 76.8843 268.095 76.605C268.323 76.0998 268.288 75.6034 267.99 75.1159C267.629 74.5033 266.55 73.4747 264.755 72.0302C264.632 71.9327 264.499 71.8262 264.354 71.7105L261.674 69.5733L256.395 76.193L260.77 79.6818C261.656 80.3881 262.381 80.8483 262.948 81.0625C263.52 81.2691 263.997 81.2813 264.38 81.0992C264.762 80.9171 265.181 80.5329 265.636 79.9465L266.828 78.4051Z" fill="white"/>
<path d="M279.324 101.785L277.47 99.4604L294.535 85.852L296.389 88.1769L279.324 101.785Z" fill="white"/>
<path d="M314.194 122.537L311.721 117.403L294.089 125.894L292.799 123.215L310.431 114.724L308.01 109.695L310.042 108.716L316.226 121.558L314.194 122.537Z" fill="white"/>
<path d="M311.848 153.083C311.796 152.854 311.859 152.604 312.038 152.333C312.218 152.072 312.462 151.821 312.767 151.581C313.083 151.339 313.479 151.078 313.956 150.799C314.433 150.519 314.887 150.271 315.318 150.052C315.751 149.843 316.229 149.609 316.751 149.349C316.94 149.256 317.08 149.189 317.17 149.148C316.787 149.136 316.353 149.12 315.867 149.1C315.384 149.09 314.991 149.08 314.688 149.069C314.395 149.056 314.066 149.041 313.701 149.024C313.339 149.016 313.045 149.003 312.821 148.984C312.606 148.963 312.373 148.931 312.123 148.888C311.884 148.852 311.693 148.806 311.55 148.748C311.407 148.691 311.266 148.623 311.128 148.544C310.99 148.466 310.883 148.37 310.807 148.257C310.743 148.151 310.694 148.027 310.662 147.884C310.603 147.627 310.655 147.35 310.817 147.053C310.989 146.753 311.204 146.574 311.461 146.515C311.68 146.465 311.935 146.462 312.225 146.506C312.518 146.559 312.789 146.628 313.038 146.711C313.288 146.794 313.643 146.948 314.105 147.174C314.57 147.408 314.933 147.596 315.195 147.736C315.46 147.886 315.903 148.136 316.523 148.485C316.844 148.662 317.085 148.797 317.247 148.891C317.181 148.776 316.996 148.452 316.695 147.92C316.393 147.388 316.191 147.028 316.088 146.841C315.985 146.654 315.836 146.373 315.64 145.997C315.444 145.621 315.299 145.314 315.204 145.075C315.109 144.836 315.038 144.612 314.99 144.402C314.771 143.441 315.094 142.861 315.961 142.663C316.818 142.468 317.354 142.841 317.569 143.784C317.645 144.117 317.674 144.596 317.656 145.221C317.651 145.854 317.614 146.573 317.548 147.379C317.493 148.193 317.464 148.681 317.461 148.842C319.542 145.802 320.844 144.223 321.368 144.104C321.749 144.017 322.088 144.054 322.385 144.217C322.685 144.389 322.879 144.665 322.965 145.046C323.013 145.256 322.987 145.472 322.888 145.695C322.798 145.916 322.6 146.146 322.295 146.386C322.001 146.634 321.733 146.845 321.493 147.02C321.252 147.195 320.864 147.424 320.327 147.707C319.791 147.989 319.397 148.195 319.145 148.322C318.894 148.45 318.456 148.66 317.832 148.952C317.796 148.971 317.764 148.983 317.735 148.989C317.709 149.006 317.682 149.022 317.656 149.038C318.04 149.05 318.5 149.05 319.038 149.038C319.048 149.035 319.137 149.03 319.305 149.022C319.485 149.021 319.68 149.016 319.888 149.009C320.106 148.999 320.367 149 320.67 149.011C320.973 149.022 321.268 149.04 321.554 149.065C321.849 149.087 322.144 149.125 322.436 149.179C322.741 149.239 323.008 149.314 323.238 149.401C323.469 149.489 323.665 149.604 323.828 149.747C324.003 149.898 324.111 150.064 324.152 150.244C324.219 150.54 324.165 150.828 323.988 151.108C323.814 151.398 323.561 151.581 323.227 151.658C322.799 151.755 322.195 151.653 321.414 151.35C320.644 151.045 319.362 150.366 317.569 149.313C317.784 149.685 318.073 150.185 318.437 150.813C318.803 151.45 319.044 151.871 319.161 152.075C319.279 152.288 319.405 152.555 319.539 152.875C319.681 153.193 319.784 153.49 319.847 153.766C320.062 154.709 319.741 155.278 318.885 155.473C318.018 155.671 317.473 155.28 317.249 154.299C317.188 154.033 317.152 153.655 317.141 153.167C317.141 152.686 317.15 152.263 317.167 151.899C317.186 151.544 317.221 151.06 317.272 150.448C317.324 149.845 317.352 149.483 317.354 149.362C315.226 152.412 313.919 153.992 313.433 154.103C313.052 154.19 312.715 154.137 312.42 153.944C312.128 153.76 311.937 153.473 311.848 153.083Z" fill="white"/>
<path d="M306 188.542V185.451L323.241 175.051H306V172.443H327.826V175.446L310.351 185.935H327.826V188.542H306Z" fill="white"/>
<path d="M301.355 214.104L304.106 202.051L325.385 206.907L322.663 218.832L320.399 218.616L322.524 209.305L315.683 207.743L313.868 215.698L311.554 215.17L313.37 207.215L305.629 205.448L303.475 214.888L301.355 214.104Z" fill="white"/>
<path d="M290.009 241.579L291.42 238.649L301.266 238.123L295.532 230.11L296.936 227.193L304.319 237.724L316.468 236.941L315.088 239.805L305.806 240.309L311.186 247.908L309.807 250.772L302.838 240.799L290.009 241.579Z" fill="white"/>
<path d="M278.237 268.657C277.762 268.266 277.353 267.909 277.011 267.586C276.671 267.277 276.364 266.964 276.092 266.647C275.82 266.331 275.601 266.05 275.435 265.804C275.268 265.559 275.146 265.281 275.07 264.97C274.994 264.673 274.95 264.406 274.938 264.172C274.933 263.943 274.984 263.659 275.092 263.32C275.201 262.995 275.328 262.696 275.471 262.423C275.613 262.15 275.828 261.802 276.114 261.381C276.394 260.967 276.676 260.574 276.961 260.202C277.24 259.837 277.598 259.379 278.036 258.83L282.913 252.714L299.978 266.322L294.808 272.804C294.12 273.667 293.505 274.345 292.963 274.837C292.423 275.342 291.864 275.721 291.288 275.974C290.706 276.234 290.126 276.296 289.547 276.159C288.969 276.023 288.352 275.7 287.697 275.19L286.451 274.215C285.932 273.801 285.524 273.444 285.226 273.144C284.928 272.844 284.685 272.538 284.497 272.226C284.303 271.921 284.205 271.612 284.205 271.3C284.204 270.987 284.26 270.65 284.373 270.29C284.487 269.944 284.676 269.527 284.94 269.038C284.473 269.515 284.002 269.87 283.528 270.104C283.054 270.338 282.61 270.465 282.195 270.484C281.774 270.51 281.328 270.435 280.856 270.259C280.385 270.083 279.954 269.871 279.565 269.623C279.176 269.375 278.733 269.053 278.237 268.657ZM288.752 272.34C288.767 272.352 288.79 272.371 288.821 272.395C289.142 272.651 289.367 272.83 289.497 272.934C289.634 273.044 289.816 273.152 290.044 273.258C290.273 273.378 290.436 273.44 290.534 273.442C290.625 273.453 290.782 273.421 291.003 273.348C291.225 273.288 291.402 273.192 291.533 273.059C291.671 272.932 291.881 272.724 292.161 272.436C292.443 272.161 292.705 271.871 292.949 271.565C293.193 271.26 293.524 270.844 293.944 270.317L296.401 267.236L290.927 262.87L289.091 265.172C288.294 266.173 287.675 267.003 287.235 267.664C286.803 268.331 286.537 268.869 286.437 269.276C286.338 269.697 286.333 270.017 286.42 270.237C286.501 270.464 286.675 270.684 286.943 270.897L288.752 272.34ZM280.595 266.828C281.516 267.537 282.116 267.96 282.395 268.095C282.9 268.323 283.397 268.288 283.884 267.99C284.497 267.629 285.525 266.55 286.97 264.755C287.067 264.633 287.174 264.499 287.289 264.354L289.427 261.674L282.807 256.395L279.318 260.77C278.612 261.656 278.152 262.381 277.937 262.948C277.731 263.52 277.719 263.997 277.901 264.38C278.083 264.762 278.467 265.181 279.053 265.636L280.595 266.828Z" fill="white"/>
<path d="M257.215 279.324L259.54 277.47L273.148 294.535L270.823 296.389L257.215 279.324Z" fill="white"/>
<path d="M236.463 314.194L241.597 311.721L233.106 294.089L235.785 292.799L244.276 310.431L249.305 308.01L250.284 310.042L237.442 316.226L236.463 314.194Z" fill="white"/>
<path d="M205.917 311.848C206.146 311.796 206.396 311.859 206.667 312.038C206.928 312.218 207.179 312.462 207.419 312.767C207.661 313.083 207.922 313.479 208.201 313.956C208.481 314.433 208.729 314.887 208.948 315.318C209.157 315.751 209.391 316.229 209.651 316.751C209.744 316.94 209.811 317.08 209.852 317.17C209.864 316.787 209.88 316.353 209.9 315.867C209.91 315.384 209.92 314.991 209.931 314.688C209.944 314.395 209.959 314.066 209.976 313.701C209.984 313.339 209.997 313.045 210.016 312.821C210.037 312.606 210.069 312.373 210.112 312.123C210.148 311.884 210.194 311.693 210.252 311.55C210.309 311.407 210.377 311.266 210.456 311.128C210.534 310.99 210.63 310.883 210.743 310.807C210.849 310.743 210.973 310.694 211.116 310.662C211.373 310.603 211.65 310.655 211.947 310.817C212.247 310.989 212.426 311.204 212.485 311.461C212.535 311.68 212.538 311.935 212.494 312.225C212.441 312.518 212.372 312.789 212.289 313.038C212.206 313.288 212.052 313.643 211.826 314.105C211.592 314.57 211.404 314.933 211.264 315.195C211.114 315.46 210.864 315.903 210.515 316.523C210.338 316.844 210.203 317.085 210.109 317.247C210.224 317.181 210.548 316.996 211.08 316.695C211.612 316.393 211.972 316.191 212.159 316.088C212.346 315.985 212.627 315.836 213.003 315.64C213.379 315.444 213.686 315.299 213.925 315.204C214.164 315.109 214.388 315.038 214.598 314.99C215.559 314.771 216.139 315.094 216.337 315.961C216.532 316.818 216.159 317.354 215.216 317.569C214.883 317.645 214.404 317.674 213.779 317.656C213.146 317.651 212.427 317.614 211.621 317.548C210.807 317.493 210.319 317.464 210.158 317.461C213.198 319.542 214.777 320.844 214.896 321.368C214.983 321.749 214.946 322.088 214.783 322.385C214.611 322.685 214.335 322.879 213.954 322.965C213.744 323.013 213.528 322.987 213.305 322.888C213.084 322.798 212.854 322.6 212.614 322.295C212.366 322.001 212.155 321.733 211.98 321.493C211.805 321.252 211.576 320.864 211.293 320.327C211.011 319.791 210.805 319.397 210.678 319.145C210.55 318.894 210.34 318.456 210.048 317.832C210.029 317.796 210.017 317.764 210.011 317.735C209.994 317.709 209.978 317.682 209.962 317.656C209.95 318.04 209.95 318.5 209.962 319.038C209.965 319.048 209.97 319.137 209.978 319.305C209.979 319.485 209.984 319.68 209.991 319.888C210.001 320.106 210 320.367 209.989 320.67C209.978 320.973 209.96 321.268 209.935 321.554C209.913 321.849 209.875 322.144 209.821 322.436C209.761 322.741 209.686 323.008 209.599 323.238C209.511 323.469 209.396 323.665 209.253 323.828C209.102 324.003 208.936 324.111 208.756 324.152C208.46 324.219 208.172 324.165 207.892 323.988C207.602 323.814 207.419 323.561 207.342 323.227C207.245 322.799 207.347 322.195 207.65 321.414C207.955 320.644 208.634 319.362 209.687 317.569C209.315 317.784 208.815 318.073 208.187 318.437C207.55 318.803 207.129 319.044 206.925 319.161C206.712 319.279 206.445 319.405 206.125 319.539C205.807 319.681 205.51 319.784 205.234 319.847C204.291 320.062 203.722 319.741 203.527 318.885C203.329 318.018 203.72 317.473 204.701 317.249C204.967 317.188 205.345 317.152 205.833 317.141C206.314 317.141 206.737 317.15 207.101 317.167C207.456 317.186 207.94 317.221 208.552 317.272C209.155 317.324 209.517 317.352 209.638 317.354C206.588 315.226 205.008 313.919 204.897 313.433C204.81 313.052 204.863 312.715 205.056 312.42C205.24 312.128 205.527 311.937 205.917 311.848Z" fill="white"/>
</svg>
