<svg width="970" height="970" viewBox="0 0 970 970" fill="none" xmlns="http://www.w3.org/2000/svg">
<path opacity="0.4" d="M484.583 969.166C752.209 969.166 969.167 752.213 969.167 484.583C969.167 216.955 752.209 0 484.583 0C216.955 0 0 216.955 0 484.583C0 752.213 216.955 969.166 484.583 969.166Z" fill="white"/>
<path d="M484.582 238.896C384.273 238.896 302.863 320.306 302.863 420.613C302.863 518.984 379.912 598.94 482.159 601.847C483.613 601.847 485.551 601.847 486.52 601.847C487.49 601.847 488.943 601.847 489.912 601.847C490.397 601.847 490.882 601.847 490.882 601.847C588.767 598.455 665.816 518.984 666.301 420.613C666.301 320.306 584.891 238.896 484.582 238.896Z" fill="white"/>
<path d="M813.165 840.752C726.91 920.224 611.579 969.166 484.618 969.166C357.657 969.166 242.326 920.224 156.07 840.752C167.7 796.655 199.198 756.434 245.234 725.421C377.525 637.227 592.68 637.227 724.002 725.421C770.522 756.434 801.535 796.655 813.165 840.752Z" fill="white"/>
</svg>
